<svg width="148" height="84" viewBox="0 0 148 84" fill="none" xmlns="http://www.w3.org/2000/svg">
<g clip-path="url(#clip0_5823_325)">
<path d="M0.994141 68.9488V59.8298H7.18051V61.1502H2.64547V63.6602H6.91835V64.966H2.64547V67.6309H7.18051V68.9512H0.994141V68.9488Z" fill="#54565A"/>
<path d="M16.8015 59.8298H18.1245V68.9488H16.63V62.9203L14.1922 67.4737H13.0651L10.6151 62.9855L10.6273 68.9488H9.13281V59.8298H10.4705L13.6409 65.793L16.799 59.8298H16.8015Z" fill="#54565A"/>
<path d="M20.3926 68.9488V59.8298H26.5789V61.1502H22.0439V63.6602H26.3168V64.966H22.0439V67.6309H26.5789V68.9512H20.3926V68.9488Z" fill="#54565A"/>
<path d="M36.2641 68.9488H34.429L32.8439 66.0397C32.6944 65.764 32.5107 65.5706 32.2926 65.4569C32.0746 65.3457 31.7977 65.2876 31.4669 65.2876H30.1831V68.9488H28.5195V59.8298H32.6087C33.6573 59.8298 34.4535 60.0596 34.9999 60.5214C35.5463 60.9833 35.8182 61.6483 35.8182 62.5188C35.8182 63.2177 35.6198 63.7932 35.2229 64.2454C34.826 64.6976 34.2649 64.9926 33.5397 65.1305C34.0297 65.261 34.4217 65.5996 34.7181 66.1534L36.2641 68.9463V68.9488ZM33.7749 63.653C34.0713 63.416 34.2208 63.0508 34.2208 62.5599C34.2208 62.0691 34.0713 61.6967 33.7749 61.4669C33.4784 61.2396 33.0105 61.1236 32.3735 61.1236H30.1709V64.0084H32.3735C33.0105 64.0084 33.4784 63.8899 33.7749 63.653Z" fill="#54565A"/>
<path d="M45.4217 64.0203V68.3924C45.0028 68.6004 44.4932 68.7624 43.8954 68.8833C43.2976 69.0042 42.6875 69.0646 42.0676 69.0646C41.1146 69.0646 40.2889 68.876 39.5906 68.5012C38.8924 68.1264 38.3558 67.5871 37.9858 66.8835C37.6134 66.1798 37.4297 65.3455 37.4297 64.3806C37.4297 63.4158 37.6159 62.5936 37.9858 61.8899C38.3583 61.1862 38.885 60.6494 39.571 60.2722C40.257 59.8974 41.0631 59.7087 41.9892 59.7087C42.636 59.7087 43.2437 59.8006 43.8121 59.9868C44.3805 60.173 44.8509 60.4366 45.2282 60.7824L44.6647 61.9842C44.2359 61.6578 43.8145 61.4208 43.4005 61.2781C42.9839 61.1355 42.5282 61.0653 42.0309 61.0653C41.0778 61.0653 40.3599 61.3434 39.8748 61.8996C39.3897 62.4558 39.1472 63.2804 39.1472 64.3758C39.1472 66.6175 40.1419 67.7395 42.1362 67.7395C42.7291 67.7395 43.3245 67.6573 43.9174 67.4928V65.2028H41.9255V64.0131H45.4242L45.4217 64.0203Z" fill="#54565A"/>
<path d="M47.6699 68.9488V59.8298H53.8563V61.1502H49.3213V63.6602H53.5941V64.966H49.3213V67.6309H53.8563V68.9512H47.6699V68.9488Z" fill="#54565A"/>
<path d="M62.0082 59.8298H63.5934V68.9488H62.3218L57.3679 62.5841V68.9488H55.7949V59.8298H57.0542L62.0082 66.1799V59.8298Z" fill="#54565A"/>
<path d="M67.6905 68.4887C67.0143 68.1042 66.4925 67.5601 66.1298 66.8516C65.7672 66.1455 65.5859 65.3209 65.5859 64.3802C65.5859 63.4396 65.7672 62.6198 66.1298 61.9161C66.4925 61.2124 67.0119 60.6708 67.6905 60.2863C68.3667 59.9018 69.1606 59.7108 70.0695 59.7108C70.6894 59.7108 71.2749 59.8051 71.8262 59.9961C72.3775 60.1847 72.8405 60.4531 73.2154 60.7989L72.6519 62.0153C72.2329 61.6888 71.8164 61.4494 71.4073 61.2971C70.9956 61.1472 70.5595 61.0698 70.0965 61.0698C69.2047 61.0698 68.5186 61.3551 68.0335 61.9234C67.5484 62.4916 67.3059 63.3114 67.3059 64.3802C67.3059 65.4491 67.5484 66.2809 68.0335 66.8516C68.5186 67.4199 69.2071 67.7052 70.0965 67.7052C70.5595 67.7052 70.9956 67.6303 71.4073 67.4779C71.8189 67.328 72.2329 67.0886 72.6519 66.7597L73.2154 67.9761C72.8405 68.3219 72.3775 68.5879 71.8262 68.7789C71.2749 68.9675 70.6894 69.0642 70.0695 69.0642C69.1606 69.0642 68.3692 68.8732 67.6905 68.4887Z" fill="#54565A"/>
<path d="M83.0621 59.8298L79.3136 64.746V68.9488H77.623V64.746L73.8867 59.8298H75.788L78.461 63.4136L81.1462 59.8298H83.0597H83.0621Z" fill="#54565A"/>
<path d="M93.7856 59.8298H95.3708V68.9488H94.0992L89.1452 62.5841V68.9488H87.5723V59.8298H88.8316L93.7856 66.1799V59.8298Z" fill="#54565A"/>
<path d="M98.6563 68.0951C98.0021 67.4495 97.6738 66.504 97.6738 65.2635V59.8298H99.3252V65.3529C99.3252 66.1388 99.5138 66.7313 99.8887 67.1303C100.264 67.5317 100.815 67.7324 101.54 67.7324C102.265 67.7324 102.802 67.5293 103.179 67.1255C103.554 66.7192 103.743 66.1292 103.743 65.3529V59.8298H105.394V65.2635C105.394 66.4967 105.066 67.4398 104.411 68.0903C103.755 68.7408 102.799 69.0672 101.54 69.0672C100.281 69.0672 99.3129 68.7432 98.6563 68.0976V68.0951Z" fill="#54565A"/>
<path d="M115.44 68.9488H113.605L112.02 66.0397C111.87 65.764 111.686 65.5706 111.468 65.4569C111.25 65.3457 110.973 65.2876 110.643 65.2876H109.359V68.9488H107.695V59.8298H111.784C112.833 59.8298 113.629 60.0596 114.176 60.5214C114.722 60.9833 114.994 61.6483 114.994 62.5188C114.994 63.2177 114.796 63.7932 114.399 64.2454C114.002 64.6976 113.441 64.9926 112.715 65.1305C113.205 65.261 113.597 65.5996 113.894 66.1534L115.44 68.9463V68.9488ZM112.951 63.653C113.247 63.416 113.397 63.0508 113.397 62.5599C113.397 62.0691 113.247 61.6967 112.951 61.4669C112.654 61.2396 112.186 61.1236 111.549 61.1236H109.347V64.0084H111.549C112.186 64.0084 112.654 63.8899 112.951 63.653Z" fill="#54565A"/>
<path d="M118.18 68.7799C117.56 68.5912 117.036 68.3228 116.607 67.977L117.171 66.7607C117.617 67.0968 118.087 67.3435 118.58 67.4982C119.072 67.653 119.609 67.7304 120.184 67.7304C120.822 67.7304 121.314 67.6191 121.659 67.4015C122.005 67.1814 122.176 66.8743 122.176 66.4778C122.176 66.132 122.017 65.8708 121.699 65.6894C121.38 65.5081 120.848 65.3364 120.106 65.1719C119.337 65.0075 118.712 64.8189 118.232 64.6037C117.752 64.3885 117.389 64.1128 117.144 63.7767C116.899 63.4405 116.776 63.0125 116.776 62.4975C116.776 61.9824 116.926 61.4842 117.222 61.0611C117.519 60.6379 117.938 60.309 118.482 60.072C119.023 59.835 119.648 59.7166 120.356 59.7166C121.003 59.7166 121.618 59.8133 122.203 60.0067C122.789 60.2002 123.269 60.4662 123.644 60.8023L123.08 62.0187C122.26 61.373 121.351 61.049 120.354 61.049C119.758 61.049 119.29 61.1675 118.945 61.4044C118.599 61.6414 118.428 61.9727 118.428 62.3935C118.428 62.7465 118.58 63.0198 118.886 63.2084C119.192 63.3994 119.712 63.576 120.447 63.738C121.223 63.9097 121.855 64.1031 122.341 64.3135C122.826 64.5239 123.196 64.7947 123.455 65.1212C123.713 65.45 123.842 65.8635 123.842 66.3641C123.842 66.9082 123.695 67.3846 123.404 67.7932C123.11 68.2019 122.688 68.5187 122.132 68.7388C121.579 68.9588 120.924 69.0676 120.172 69.0676C119.464 69.0676 118.8 68.9733 118.18 68.7823V68.7799Z" fill="#54565A"/>
<path d="M125.713 68.9488V59.8298H131.899V61.1502H127.364V63.6602H131.637V64.966H127.364V67.6309H131.899V68.9512H125.713V68.9488Z" fill="#54565A"/>
<path d="M134.944 68.7799C134.324 68.5912 133.8 68.3228 133.371 67.977L133.935 66.7607C134.381 67.0968 134.851 67.3435 135.343 67.4982C135.836 67.653 136.372 67.7304 136.948 67.7304C137.585 67.7304 138.078 67.6191 138.423 67.4015C138.769 67.1814 138.94 66.8743 138.94 66.4778C138.94 66.132 138.781 65.8708 138.462 65.6894C138.144 65.5081 137.612 65.3364 136.87 65.1719C136.1 65.0075 135.476 64.8189 134.995 64.6037C134.515 64.3885 134.153 64.1128 133.908 63.7767C133.663 63.4405 133.54 63.0125 133.54 62.4975C133.54 61.9824 133.69 61.4842 133.986 61.0611C134.283 60.6379 134.701 60.309 135.245 60.072C135.787 59.835 136.412 59.7166 137.12 59.7166C137.766 59.7166 138.381 59.8133 138.967 60.0067C139.553 60.2002 140.033 60.4662 140.408 60.8023L139.844 62.0187C139.023 61.373 138.114 61.049 137.117 61.049C136.522 61.049 136.054 61.1675 135.708 61.4044C135.363 61.6414 135.191 61.9727 135.191 62.3935C135.191 62.7465 135.343 63.0198 135.65 63.2084C135.956 63.3994 136.475 63.576 137.21 63.738C137.987 63.9097 138.619 64.1031 139.104 64.3135C139.589 64.5239 139.959 64.7947 140.219 65.1212C140.476 65.45 140.606 65.8635 140.606 66.3641C140.606 66.9082 140.459 67.3846 140.168 67.7932C139.874 68.2019 139.452 68.5187 138.896 68.7388C138.342 68.9588 137.688 69.0676 136.936 69.0676C136.228 69.0676 135.564 68.9733 134.944 68.7823V68.7799Z" fill="#54565A"/>
<path d="M8.06065 83.8824L7.12964 81.7471H2.6338L1.70278 83.8824H0L4.17978 74.7634H5.55671L9.73649 83.8824H8.0582H8.06065ZM3.18506 80.4558H6.56613L4.87559 76.5746L3.18506 80.4558Z" fill="#54565A"/>
<path d="M12.3229 83.7135C11.7031 83.5248 11.1788 83.2564 10.75 82.9106L11.3135 81.6943C11.7594 82.0304 12.2298 82.2771 12.7223 82.4318C13.2147 82.5866 13.7513 82.664 14.3271 82.664C14.9641 82.664 15.4565 82.5527 15.802 82.3351C16.1475 82.115 16.319 81.8079 16.319 81.4114C16.319 81.0656 16.1597 80.8044 15.8412 80.623C15.5227 80.4417 14.991 80.27 14.2487 80.1055C13.4794 79.9411 12.8546 79.7525 12.3744 79.5373C11.8942 79.3221 11.5316 79.0464 11.2866 78.7103C11.0416 78.3741 10.9191 77.9461 10.9191 77.431C10.9191 76.916 11.0685 76.4178 11.365 75.9946C11.6614 75.5715 12.0804 75.2426 12.6243 75.0056C13.1657 74.7686 13.7905 74.6501 14.4986 74.6501C15.1454 74.6501 15.7603 74.7469 16.3459 74.9403C16.9315 75.1338 17.4117 75.3998 17.7865 75.7359L17.223 76.9522C16.4023 76.3066 15.4933 75.9826 14.4961 75.9826C13.9008 75.9826 13.4328 76.1011 13.0873 76.338C12.7419 76.575 12.5704 76.9063 12.5704 77.3271C12.5704 77.6801 12.7223 77.9534 13.0285 78.142C13.3348 78.333 13.8542 78.5095 14.5892 78.6716C15.3659 78.8433 15.998 79.0367 16.4831 79.2471C16.9682 79.4575 17.3382 79.7283 17.5954 80.0548C17.8527 80.3836 17.9825 80.7971 17.9825 81.2977C17.9825 81.8418 17.8355 82.3182 17.544 82.7268C17.25 83.1355 16.8286 83.4523 16.2724 83.6723C15.7187 83.8924 15.0645 84.0012 14.3124 84.0012C13.6043 84.0012 12.9403 83.9069 12.3205 83.7159L12.3229 83.7135Z" fill="#54565A"/>
<path d="M20.8581 83.7135C20.2382 83.5248 19.7139 83.2564 19.2852 82.9106L19.8487 81.6943C20.2946 82.0304 20.765 82.2771 21.2574 82.4318C21.7499 82.5866 22.2865 82.664 22.8622 82.664C23.4992 82.664 23.9917 82.5527 24.3372 82.3351C24.6826 82.115 24.8541 81.8079 24.8541 81.4114C24.8541 81.0656 24.6949 80.8044 24.3764 80.623C24.0578 80.4417 23.5262 80.27 22.7838 80.1055C22.0145 79.9411 21.3897 79.7525 20.9095 79.5373C20.4293 79.3221 20.0667 79.0464 19.8217 78.7103C19.5767 78.3741 19.4542 77.9461 19.4542 77.431C19.4542 76.916 19.6037 76.4178 19.9001 75.9946C20.1966 75.5715 20.6155 75.2426 21.1594 75.0056C21.7009 74.7686 22.3257 74.6501 23.0337 74.6501C23.6805 74.6501 24.2955 74.7469 24.8811 74.9403C25.4666 75.1338 25.9468 75.3998 26.3217 75.7359L25.7582 76.9522C24.9374 76.3066 24.0284 75.9826 23.0313 75.9826C22.4359 75.9826 21.968 76.1011 21.6225 76.338C21.277 76.575 21.1055 76.9063 21.1055 77.3271C21.1055 77.6801 21.2574 77.9534 21.5637 78.142C21.87 78.333 22.3894 78.5095 23.1244 78.6716C23.901 78.8433 24.5332 79.0367 25.0183 79.2471C25.5034 79.4575 25.8733 79.7283 26.133 80.0548C26.3903 80.3836 26.5201 80.7971 26.5201 81.2977C26.5201 81.8418 26.3731 82.3182 26.0816 82.7268C25.7876 83.1355 25.3662 83.4523 24.81 83.6723C24.2563 83.8924 23.6021 84.0012 22.85 84.0012C22.1419 84.0012 21.4779 83.9069 20.8581 83.7159V83.7135Z" fill="#54565A"/>
<path d="M30.0512 83.4305C29.3922 83.0509 28.8825 82.5068 28.5248 81.8007C28.1671 81.0946 27.9883 80.2651 27.9883 79.3172C27.9883 78.3693 28.1647 77.5423 28.5199 76.841C28.8727 76.1373 29.3824 75.5981 30.0463 75.2184C30.7103 74.8388 31.4919 74.6501 32.391 74.6501C33.2902 74.6501 34.0717 74.8412 34.7308 75.2184C35.3899 75.5981 35.897 76.1397 36.2523 76.841C36.6051 77.5447 36.7815 78.3693 36.7815 79.3172C36.7815 80.2651 36.6026 81.0946 36.2449 81.8007C35.8872 82.5068 35.3776 83.0509 34.7186 83.4305C34.0595 83.8102 33.2828 83.9988 32.3935 83.9988C31.5041 83.9988 30.7152 83.8102 30.0537 83.4305H30.0512ZM34.3756 81.8007C34.8509 81.2227 35.0885 80.3957 35.0885 79.3172C35.0885 78.2387 34.8509 77.4141 34.3756 76.841C33.8978 76.2679 33.2363 75.9801 32.3886 75.9801C31.5408 75.9801 30.8671 76.2679 30.3893 76.841C29.9116 77.4141 29.6739 78.2411 29.6739 79.3172C29.6739 80.3933 29.9116 81.2227 30.3893 81.8007C30.8646 82.3786 31.531 82.6664 32.3886 82.6664C33.2461 82.6664 33.8978 82.3786 34.3756 81.8007Z" fill="#54565A"/>
<path d="M40.505 83.4242C39.8288 83.0397 39.3069 82.4956 38.9443 81.7871C38.5817 81.081 38.4004 80.2564 38.4004 79.3157C38.4004 78.3751 38.5817 77.5553 38.9443 76.8516C39.3069 76.1479 39.8263 75.6063 40.505 75.2218C41.1812 74.8373 41.975 74.6462 42.884 74.6462C43.5038 74.6462 44.0894 74.7405 44.6407 74.9316C45.1919 75.1202 45.655 75.3886 46.0298 75.7344L45.4663 76.9508C45.0474 76.6243 44.6309 76.3849 44.2217 76.2326C43.8101 76.0826 43.374 76.0053 42.9109 76.0053C42.0191 76.0053 41.3331 76.2906 40.848 76.8589C40.3629 77.4271 40.1203 78.2469 40.1203 79.3157C40.1203 80.3846 40.3629 81.2164 40.848 81.7871C41.3331 82.3554 42.0216 82.6407 42.9109 82.6407C43.374 82.6407 43.8101 82.5657 44.2217 82.4134C44.6333 82.2635 45.0474 82.0241 45.4663 81.6952L46.0298 82.9115C45.655 83.2573 45.1919 83.5233 44.6407 83.7144C44.0894 83.903 43.5038 83.9997 42.884 83.9997C41.975 83.9997 41.1836 83.8087 40.505 83.4242Z" fill="#54565A"/>
<path d="M47.7773 83.8843V74.7654H49.4679V83.8843H47.7773Z" fill="#54565A"/>
<path d="M58.9454 83.8843L58.0144 81.7491H53.5186L52.5875 83.8843H50.8848L55.0645 74.7654H56.4415L60.6213 83.8843H58.943H58.9454ZM54.0698 80.4578H57.4509L55.7604 76.5766L54.0698 80.4578Z" fill="#54565A"/>
<path d="M63.0936 83.8843V76.1365H60.0801V74.7654H67.7977V76.1365H64.7842V83.8843H63.0936Z" fill="#54565A"/>
<path d="M69.2891 83.8843V74.7654H70.9796V83.8843H69.2891Z" fill="#54565A"/>
<path d="M75.0629 83.4305C74.4039 83.0509 73.8943 82.5068 73.5366 81.8007C73.1789 81.0946 73 80.2651 73 79.3172C73 78.3693 73.1764 77.5423 73.5317 76.841C73.8845 76.1373 74.3941 75.5981 75.058 75.2184C75.722 74.8388 76.5036 74.6501 77.4027 74.6501C78.3019 74.6501 79.0835 74.8412 79.7425 75.2184C80.4016 75.5981 80.9087 76.1397 81.264 76.841C81.6168 77.5447 81.7932 78.3693 81.7932 79.3172C81.7932 80.2651 81.6144 81.0946 81.2567 81.8007C80.8989 82.5068 80.3893 83.0509 79.7303 83.4305C79.0712 83.8102 78.2945 83.9988 77.4052 83.9988C76.5158 83.9988 75.7269 83.8102 75.0654 83.4305H75.0629ZM79.3873 81.8007C79.8626 81.2227 80.1002 80.3957 80.1002 79.3172C80.1002 78.2387 79.8626 77.4141 79.3873 76.841C78.9095 76.2679 78.248 75.9801 77.4003 75.9801C76.5526 75.9801 75.8788 76.2679 75.401 76.841C74.9233 77.4141 74.6856 78.2411 74.6856 79.3172C74.6856 80.3933 74.9233 81.2227 75.401 81.8007C75.8764 82.3786 76.5428 82.6664 77.4003 82.6664C78.2578 82.6664 78.9095 82.3786 79.3873 81.8007Z" fill="#54565A"/>
<path d="M89.9985 74.7654H91.5837V83.8843H90.3121L85.3581 77.5197V83.8843H83.7852V74.7654H85.0445L89.9985 81.1155V74.7654Z" fill="#54565A"/>
<path d="M56.3555 51.8776V27.1639C56.3555 26.2837 57.5388 25.979 57.9749 26.748L72.2195 51.8776H56.3555Z" fill="#590072"/>
<path d="M55.7324 0L70.1877 25.1707C70.6263 25.9325 71.8047 25.6278 71.8047 24.75V0H55.7349H55.7324Z" fill="#590072"/>
<path d="M0.472656 2.73012V49.1469C0.472656 50.6558 1.71238 51.877 3.23876 51.877H40.5848V38.1104H16.2314V31.1872H40.5848V19.2873H16.2314V12.9856H40.5848V0H3.23876C1.70993 0 0.472656 1.22359 0.472656 2.73012Z" fill="#590072"/>
<path d="M104.32 0H87.5742V51.877H100.567C102.096 51.877 103.333 50.6534 103.333 49.1469V43.0894H117.903L122.255 49.9546C123.014 51.1516 124.342 51.877 125.773 51.877H140.738L107.799 1.86441C107.035 0.70127 105.724 0 104.32 0ZM103.335 31.1896V20.5545C103.335 19.6742 104.521 19.3695 104.955 20.1385L111.2 31.1896H103.335Z" fill="#590072"/>
<path d="M148.001 48.8219C148.001 50.5243 146.614 51.8761 144.85 51.8761C143.086 51.8761 141.68 50.5243 141.68 48.8219C141.68 47.1195 143.086 45.7871 144.867 45.7871C146.648 45.7871 147.998 47.1195 147.998 48.8219H148.001ZM142.469 48.8219C142.469 50.1737 143.5 51.2473 144.87 51.2473C146.2 51.2667 147.214 50.1737 147.214 48.8413C147.214 47.5088 146.202 46.3989 144.833 46.3989C143.463 46.3989 142.471 47.4919 142.471 48.8243L142.469 48.8219ZM144.362 50.3961H143.65V47.3613C143.931 47.3251 144.326 47.2694 144.83 47.2694C145.411 47.2694 145.673 47.3613 145.882 47.5113C146.07 47.6418 146.2 47.8619 146.2 48.1593C146.2 48.5293 145.918 48.7711 145.563 48.8799V48.9162C145.864 49.0081 146.014 49.2499 146.107 49.6562C146.2 50.1181 146.276 50.2849 146.332 50.3961H145.583C145.49 50.2849 145.433 50.0262 145.338 49.6562C145.281 49.3418 145.093 49.1943 144.701 49.1943H144.362V50.3961ZM144.382 48.6937H144.72C145.115 48.6937 145.433 48.5632 145.433 48.2488C145.433 47.9707 145.227 47.7869 144.777 47.7869C144.588 47.7869 144.458 47.8063 144.382 47.8232V48.6937Z" fill="#590072"/>
</g>
<defs>
<clipPath id="clip0_5823_325">
<rect width="148" height="84" fill="white"/>
</clipPath>
</defs>
</svg>
