<svg xmlns="http://www.w3.org/2000/svg" xmlns:xlink="http://www.w3.org/1999/xlink" id="Layer_1" viewBox="0 0 524.81 165.3"><defs><style>.cls-1{fill:url(#linear-gradient);}.cls-1,.cls-2{stroke-width:0px;}.cls-2{fill:#333f48;}</style><linearGradient id="linear-gradient" x1="0" y1="82.65" x2="192.26" y2="82.65" gradientUnits="userSpaceOnUse"><stop offset="0" stop-color="#005eb8"></stop><stop offset="1" stop-color="#00a3e0"></stop></linearGradient></defs><path class="cls-2" d="m209.86,79.84l3.71-.47v-28.11l-3.53-.66v-2.87h6.81c.6,0,1.25-.02,1.98-.05.72-.03,1.27-.06,1.65-.09,1.63-.12,2.98-.19,4.04-.19,3.23,0,5.81.33,7.76.99,1.94.66,3.35,1.66,4.23,3.01.88,1.35,1.32,3.12,1.32,5.31s-.58,4.17-1.74,6.02c-1.16,1.85-2.83,3.12-5.03,3.81,1.25.53,2.37,1.5,3.34,2.91.97,1.41,2.01,3.24,3.1,5.5.78,1.54,1.39,2.64,1.81,3.31.42.67.84,1.06,1.25,1.15l1.55.47v2.77h-7.99c-.5,0-1.03-.51-1.57-1.53-.55-1.02-1.26-2.62-2.14-4.82-1.04-2.57-1.93-4.58-2.68-6.02s-1.55-2.33-2.4-2.68h-4.84v11.75l4.32.47v2.82h-14.95v-2.82Zm19.13-17.01c1-1.28,1.5-3.21,1.5-5.78,0-2.29-.49-3.98-1.48-5.08-.99-1.1-2.69-1.64-5.1-1.64-.88,0-1.62.04-2.23.12-.61.08-1.01.12-1.2.12v14.1c.38.06,1.28.1,2.72.1h1.6c1.79,0,3.18-.64,4.18-1.93Z"></path><path class="cls-2" d="m245.87,79.54c-2.02-2.43-3.03-5.74-3.03-9.94,0-2.82.52-5.26,1.57-7.33s2.53-3.65,4.44-4.75c1.91-1.1,4.12-1.65,6.63-1.65,3.13,0,5.55.82,7.24,2.47s2.57,3.99,2.63,7.03c0,2.07-.13,3.6-.38,4.61h-15.28c.12,2.85.8,5.07,2.02,6.65,1.22,1.58,2.96,2.37,5.22,2.37,1.22,0,2.48-.2,3.78-.61,1.3-.41,2.33-.89,3.08-1.46l1.18,2.59c-.85.91-2.22,1.75-4.11,2.51-1.89.77-3.81,1.15-5.76,1.15-4.14,0-7.21-1.21-9.24-3.64Zm12.9-12.39c.06-.88.09-1.55.09-2.02,0-4.17-1.39-6.25-4.18-6.25-1.54,0-2.73.61-3.57,1.83-.84,1.22-1.32,3.37-1.41,6.44h9.07Z"></path><path class="cls-2" d="m274.33,78.81c.25.38.82.73,1.72,1.06.89.33,1.79.49,2.7.49,1.47,0,2.58-.31,3.31-.92.74-.61,1.11-1.42,1.11-2.42s-.46-1.87-1.36-2.51-2.44-1.43-4.61-2.37l-1.32-.56c-2.16-.91-3.78-2.01-4.84-3.29-1.07-1.28-1.6-2.94-1.6-4.98,0-1.41.42-2.67,1.27-3.78.84-1.11,2.04-1.98,3.57-2.61s3.31-.94,5.31-.94c1.47,0,2.73.09,3.78.28s2.16.44,3.32.75c.62.22,1.1.35,1.41.38v6.16h-3.71l-1.08-3.57c-.19-.31-.61-.59-1.27-.84-.66-.25-1.41-.38-2.26-.38-1.29,0-2.31.27-3.08.82-.77.55-1.15,1.31-1.15,2.28,0,.88.27,1.61.8,2.19.53.58,1.11,1.03,1.74,1.34.63.31,1.79.83,3.48,1.55,1.69.72,3.09,1.41,4.21,2.07,1.11.66,2.04,1.51,2.77,2.56.73,1.05,1.1,2.33,1.1,3.83,0,2.32-.91,4.2-2.72,5.64-1.82,1.44-4.43,2.16-7.85,2.16-1.6,0-3.03-.14-4.3-.42-1.27-.28-2.73-.66-4.39-1.13l-1.03-.33v-6.21h3.9l1.08,3.71Z"></path><path class="cls-2" d="m312.45,82.47c-.47-.44-.71-1.1-.71-1.98v-1.27c-.84,1.03-2.04,1.95-3.57,2.75s-3.07,1.2-4.61,1.2c-3.01,0-5.15-.78-6.44-2.33-1.29-1.55-1.93-4.11-1.93-7.69v-13.25l-2.35-.66v-2.68l7.99-.61h.05l.94.66v16.55c0,2.29.28,3.89.84,4.79.57.91,1.61,1.36,3.15,1.36,1.85,0,3.57-.72,5.17-2.16v-17.25l-3.15-.71v-2.63l8.51-.61h.09l1.13.66v23.12h2.63l-.05,2.68c-.12.03-.71.16-1.74.38-1.04.22-2.27.33-3.71.33-1.04,0-1.79-.22-2.26-.66Z"></path><path class="cls-2" d="m328.76,78.81c.25.38.82.73,1.72,1.06.89.33,1.79.49,2.7.49,1.47,0,2.58-.31,3.31-.92.74-.61,1.11-1.42,1.11-2.42s-.46-1.87-1.36-2.51-2.44-1.43-4.6-2.37l-1.32-.56c-2.16-.91-3.78-2.01-4.84-3.29-1.07-1.28-1.6-2.94-1.6-4.98,0-1.41.42-2.67,1.27-3.78.84-1.11,2.04-1.98,3.57-2.61s3.31-.94,5.31-.94c1.47,0,2.73.09,3.78.28s2.16.44,3.32.75c.62.22,1.1.35,1.41.38v6.16h-3.71l-1.08-3.57c-.19-.31-.61-.59-1.27-.84-.66-.25-1.41-.38-2.26-.38-1.29,0-2.31.27-3.08.82-.77.55-1.15,1.31-1.15,2.28,0,.88.27,1.61.8,2.19.53.58,1.11,1.03,1.74,1.34.63.31,1.79.83,3.48,1.55,1.69.72,3.09,1.41,4.21,2.07,1.11.66,2.04,1.51,2.77,2.56.73,1.05,1.1,2.33,1.1,3.83,0,2.32-.91,4.2-2.72,5.64-1.82,1.44-4.43,2.16-7.85,2.16-1.6,0-3.03-.14-4.3-.42-1.27-.28-2.73-.66-4.39-1.13l-1.03-.33v-6.21h3.9l1.08,3.71Z"></path><path class="cls-2" d="m348.95,62.55c1.08-2.1,2.63-3.74,4.65-4.91,2.02-1.17,4.38-1.76,7.08-1.76,1.25,0,2.33.1,3.24.28s1.93.44,3.05.75l1.36.38-.28,8.04h-4.09l-1.17-5.17c-.19-.81-1.11-1.22-2.77-1.22-1.76,0-3.12.77-4.11,2.3-.99,1.54-1.5,3.93-1.53,7.19,0,3.45.6,6.09,1.78,7.92,1.19,1.83,2.77,2.75,4.75,2.75,2.38,0,4.58-.64,6.58-1.93l1.08,2.44c-.82.88-2.06,1.69-3.74,2.44-1.67.75-3.49,1.13-5.43,1.13-4.01,0-7.03-1.24-9.05-3.71s-3.03-5.72-3.03-9.73c0-2.7.54-5.09,1.62-7.19Z"></path><path class="cls-2" d="m375.43,60.99l-3.34-.89v-3.15l8.6-1.03h.1l1.32.94v22.61l3.15.38v2.82h-13.12v-2.82l3.29-.42v-18.43Zm-.19-9.73c-.66-.66-.99-1.5-.99-2.54,0-1.19.38-2.18,1.13-2.96s1.75-1.17,3.01-1.17,2.21.34,2.87,1.01c.66.67.99,1.51.99,2.51,0,1.25-.38,2.26-1.13,3.01-.75.75-1.8,1.13-3.15,1.13h-.05c-1.13,0-2.02-.33-2.68-.99Z"></path><path class="cls-2" d="m391.65,81.72c-.94-.91-1.41-2.35-1.41-4.32v-17.25h-3.06v-2.44c.25-.09.71-.26,1.36-.49.66-.23,1.16-.43,1.5-.59.53-.41.99-1.11,1.36-2.11.28-.66.8-2.29,1.55-4.89h3.76l.19,6.91h7.19v3.62h-7.14v13.21c0,1.76.05,2.99.14,3.71.1.72.3,1.18.61,1.39.31.21.86.31,1.65.31s1.6-.09,2.44-.26c.84-.17,1.55-.38,2.11-.63l.89,2.63c-.88.66-2.16,1.25-3.85,1.79s-3.34.8-4.93.8c-1.98,0-3.43-.45-4.37-1.36Z"></path><path class="cls-2" d="m411.09,68.89c2.87-1.44,6.57-2.18,11.12-2.21v-1.08c0-1.29-.13-2.29-.4-3.01-.27-.72-.75-1.26-1.46-1.62-.71-.36-1.73-.54-3.08-.54-1.54,0-2.92.2-4.14.59-1.22.39-2.49.9-3.81,1.53l-1.46-3.01c.47-.41,1.26-.89,2.38-1.46,1.11-.56,2.43-1.06,3.97-1.48,1.54-.42,3.12-.63,4.75-.63,2.41,0,4.3.31,5.66.94,1.36.63,2.34,1.63,2.94,3.01s.89,3.23.89,5.55v14.38h2.54v2.63c-.63.16-1.52.31-2.68.47-1.16.16-2.18.23-3.05.23-1.07,0-1.78-.16-2.14-.47-.36-.31-.54-.95-.54-1.93v-1.27c-.84.94-1.94,1.79-3.29,2.54-1.35.75-2.87,1.13-4.56,1.13-1.44,0-2.77-.31-3.97-.92-1.21-.61-2.17-1.5-2.89-2.68s-1.08-2.59-1.08-4.25c0-2.85,1.43-5,4.3-6.44Zm8.91,9.8c.85-.39,1.58-.87,2.21-1.43v-7.71c-2.82,0-4.93.48-6.32,1.43-1.39.96-2.09,2.19-2.09,3.69s.35,2.65,1.06,3.43c.71.78,1.67,1.17,2.89,1.17.66,0,1.41-.2,2.26-.59Z"></path><path class="cls-2" d="m436.96,81.72c-.94-.91-1.41-2.35-1.41-4.32v-17.25h-3.06v-2.44c.25-.09.71-.26,1.36-.49.66-.23,1.16-.43,1.5-.59.53-.41.99-1.11,1.36-2.11.28-.66.8-2.29,1.55-4.89h3.76l.19,6.91h7.19v3.62h-7.14v13.21c0,1.76.05,2.99.14,3.71.1.72.3,1.18.61,1.39.31.21.86.31,1.65.31s1.6-.09,2.44-.26c.84-.17,1.55-.38,2.11-.63l.89,2.63c-.88.66-2.16,1.25-3.85,1.79s-3.34.8-4.93.8c-1.98,0-3.43-.45-4.37-1.36Z"></path><path class="cls-2" d="m455.72,60.99l-3.34-.89v-3.15l8.6-1.03h.1l1.32.94v22.61l3.15.38v2.82h-13.12v-2.82l3.29-.42v-18.43Zm-.19-9.73c-.66-.66-.99-1.5-.99-2.54,0-1.19.38-2.18,1.13-2.96s1.75-1.17,3.01-1.17,2.21.34,2.87,1.01c.66.67.99,1.51.99,2.51,0,1.25-.38,2.26-1.13,3.01-.75.75-1.8,1.13-3.15,1.13h-.05c-1.13,0-2.02-.33-2.68-.99Z"></path><path class="cls-2" d="m469.51,62.12c1.18-2.07,2.75-3.63,4.72-4.68,1.98-1.05,4.12-1.57,6.44-1.57,3.95,0,6.99,1.22,9.14,3.64,2.15,2.43,3.22,5.73,3.22,9.9,0,2.98-.59,5.51-1.76,7.59-1.17,2.08-2.74,3.64-4.7,4.65s-4.11,1.53-6.46,1.53c-3.92,0-6.96-1.21-9.12-3.64-2.16-2.43-3.24-5.73-3.24-9.9,0-2.94.59-5.45,1.76-7.52Zm16.29,7.75c0-3.57-.42-6.29-1.27-8.15-.84-1.86-2.22-2.8-4.14-2.8-3.64,0-5.45,3.42-5.45,10.25,0,3.57.45,6.29,1.34,8.15.89,1.87,2.29,2.8,4.21,2.8,3.54,0,5.31-3.41,5.31-10.25Z"></path><path class="cls-2" d="m498.77,60.99l-3.01-.85v-3.24l7.8-.99h.14l1.17.94v1.83l-.05,1.13c1.1-1.04,2.52-1.93,4.28-2.68s3.53-1.13,5.31-1.13c1.91,0,3.41.35,4.49,1.06s1.86,1.81,2.33,3.32c.47,1.5.71,3.54.71,6.11v12.97l2.87.38v2.82h-12.13v-2.82l2.54-.38v-12.97c0-1.63-.11-2.91-.33-3.83-.22-.92-.62-1.6-1.2-2.02-.58-.42-1.4-.63-2.47-.63-1.78,0-3.7.77-5.73,2.3v17.11l2.82.42v2.82h-12.27v-2.82l2.72-.42v-18.43Z"></path><path class="cls-2" d="m216.54,94.48l-6.67,18.18h2.31l1.83-5.15h7.35l1.83,5.15h2.31l-6.68-18.18h-2.27Zm-1.85,11.08l2.91-8.2h.14l2.91,8.2h-5.97Z"></path><path class="cls-2" d="m245.26,106.34c0,.89-.19,1.68-.58,2.37s-.94,1.23-1.67,1.62c-.73.4-1.6.59-2.61.59s-1.88-.2-2.61-.59c-.73-.39-1.28-.94-1.67-1.62s-.59-1.48-.59-2.37v-11.86h-2.2v12.04c0,1.24.29,2.35.87,3.32.58.97,1.4,1.74,2.46,2.3s2.3.84,3.73.84,2.67-.28,3.73-.84,1.88-1.33,2.46-2.3c.58-.97.87-2.08.87-3.32v-12.04h-2.2v11.86Z"></path><path class="cls-2" d="m267.34,104.13c-.53-.37-1.09-.67-1.68-.89s-1.11-.39-1.58-.52l-1.85-.5c-.34-.09-.71-.21-1.11-.35-.4-.15-.79-.33-1.15-.56-.37-.23-.67-.52-.9-.86s-.35-.76-.35-1.25c0-.58.17-1.1.5-1.55.33-.46.8-.82,1.4-1.07.6-.26,1.3-.39,2.11-.39,1.1,0,2.03.25,2.79.74.76.5,1.19,1.2,1.3,2.09h2.13c-.03-.92-.31-1.74-.85-2.46-.53-.72-1.26-1.29-2.17-1.71s-1.95-.62-3.12-.62-2.21.21-3.15.63c-.94.42-1.68,1.01-2.24,1.77-.55.76-.83,1.65-.83,2.67,0,1.23.42,2.22,1.25,2.97.83.76,1.95,1.34,3.37,1.75l2.24.64c.64.18,1.23.39,1.78.62.55.24.99.54,1.33.92s.51.87.51,1.47c0,.66-.2,1.24-.59,1.73-.39.5-.92.88-1.59,1.15-.67.28-1.42.41-2.27.41-.72,0-1.39-.11-2.02-.32-.62-.22-1.14-.55-1.55-1s-.64-1.01-.7-1.7h-2.27c.07.99.38,1.87.92,2.62s1.29,1.34,2.24,1.76,2.08.63,3.38.63c1.4,0,2.59-.23,3.56-.7.98-.47,1.73-1.1,2.24-1.89.51-.79.77-1.68.77-2.66,0-.85-.17-1.57-.52-2.16s-.79-1.07-1.33-1.44Z"></path><polygon class="cls-2" points="276.82 96.43 282.54 96.43 282.54 112.66 284.74 112.66 284.74 96.43 290.46 96.43 290.46 94.48 276.82 94.48 276.82 96.43"></polygon><path class="cls-2" d="m308.52,104.86c.91-.47,1.58-1.12,2.01-1.95.44-.83.66-1.78.66-2.85s-.22-2.03-.66-2.87c-.44-.84-1.11-1.5-2.02-1.98-.91-.48-2.08-.73-3.5-.73h-6.14v18.18h2.2v-7.1h3.98c.16,0,.29-.03.45-.04l3.85,7.14h2.56l-4.14-7.55c.25-.09.53-.14.75-.26Zm-7.45-8.42h3.87c.98,0,1.77.15,2.37.45.6.3,1.03.72,1.31,1.26.27.54.41,1.18.41,1.91s-.13,1.35-.4,1.88c-.27.52-.7.93-1.3,1.21-.6.28-1.38.42-2.35.42h-3.91v-7.14Z"></path><path class="cls-2" d="m324.96,94.48l-6.67,18.18h2.31l1.83-5.15h7.35l1.83,5.15h2.31l-6.68-18.18h-2.27Zm-1.85,11.08l2.91-8.2h.14l2.91,8.2h-5.97Z"></path><polygon class="cls-2" points="343.96 94.48 341.75 94.48 341.75 112.66 352.41 112.66 352.41 110.71 343.96 110.71 343.96 94.48"></polygon><rect class="cls-2" x="360.82" y="94.48" width="2.2" height="18.18"></rect><path class="cls-2" d="m384.18,112.66h2.31l-6.68-18.18h-2.27l-6.67,18.18h2.31l1.83-5.15h7.35l1.83,5.15Zm-8.49-7.1l2.91-8.2h.14l2.91,8.2h-5.97Z"></path><path class="cls-1" d="m159.23,165.3c-1.63,0-3.23-.31-4.66-.9-3.2-1.32-5.65-4.05-6.72-7.5-1.04-3.36-.58-6.92,1.28-9.75.73-1.12,1.6-2.4,2.59-3.82l-50.26-19.73c-1.01-.4-2.1-.47-3.15-.2l-57.11,14.47c-5.07,1.29-10.26-1.24-12.62-6.15l-7.75-16.15c-.66-1.38-.08-3.03,1.3-3.7,1.38-.66,3.03-.08,3.7,1.3l7.75,16.15c1.2,2.5,3.78,3.81,6.27,3.18l57.11-14.47c2.18-.55,4.44-.41,6.53.42l51.54,20.24c10.93-15.17,28.96-38.42,30.89-40.91,1.11-2.08,1.06-4.6-.14-6.64-1.09-1.83-2.86-2.84-4.83-2.83l-50.76.64c-.06,0-.13,0-.19,0-5.05,0-9.49-3.57-10.81-8.75l-7.92-31.15c-.03-.11-.07-.2-.12-.22l-26.13,49.92c-.97,1.85-2.84,2.93-4.86,2.87-2.04-.08-3.82-1.32-4.65-3.25l-12.55-29.22-9.4,16.35c-2.02,3.51-5.69,5.69-9.58,5.69h-27.37c-4.09,0-7.85-2.34-9.82-6.12l-5.4-10.36c-2.73-5.24-1.32-11.81,3.29-15.3L74.53,5.15c3.61-2.73,8.39-2.97,12.2-.63l36.05,22.13c2.48,1.52,5.62.76,7.31-1.77l12.16-19.77c2.46-3.7,6.38-5.54,10.53-5.03,4.15.52,7.64,3.37,9.14,7.47l23.58,50.53c.65,1.39.05,3.03-1.34,3.68-1.39.64-3.03.05-3.68-1.34l-23.63-50.64c-.04-.08-.07-.16-.1-.25-.78-2.21-2.52-3.69-4.65-3.95-2.03-.25-3.97.69-5.19,2.52l-12.16,19.77c-3.37,5.07-9.88,6.57-14.87,3.51l-36.05-22.13c-1.88-1.15-4.16-1.04-5.94.31L8.04,63.8c-2.46,1.86-3.22,5.52-1.74,8.34l5.4,10.36c1.01,1.94,2.89,3.14,4.91,3.14h27.37c1.95,0,3.74-1.09,4.78-2.91l9.84-17.11c.98-1.71,2.77-2.7,4.71-2.59,1.93.11,3.63,1.32,4.41,3.15l12.67,29.48,25.72-49.28c1.11-2.13,3.32-3.33,5.66-3.06,2.36.27,4.28,1.99,4.88,4.37l7.92,31.15c.7,2.74,2.98,4.51,5.55,4.58l50.76-.64c3.98-.11,7.58,2,9.67,5.55,2.25,3.8,2.29,8.53.1,12.36-.06.11-.14.22-.22.33-.23.29-18.66,24.02-30.07,39.77l2.5.98c3.56,1.51,6.28,4.34,7.52,7.79,1.14,3.16.94,6.48-.56,9.37-2.33,4.48-6.55,6.39-10.58,6.39Zm-2.2-19.88c-1.27,1.81-2.38,3.42-3.26,4.77-.95,1.45-1.17,3.3-.62,5.07.57,1.84,1.89,3.34,3.53,4.02,2.74,1.13,6.44.49,8.21-2.92.78-1.5.87-3.25.27-4.94-.72-2-2.32-3.65-4.4-4.53l-3.73-1.46Z"></path></svg>