<svg id="Layer_1" data-name="Layer 1" xmlns="http://www.w3.org/2000/svg" viewBox="0 0 401.93753 85.03919"><defs><style>.cls-1{fill:#231f20;}.cls-2{fill:#495b14;}.cls-3{fill:#ee3129;}.cls-4{fill:#ffd100;}.cls-4,.cls-5{stroke:#ffd100;}.cls-4,.cls-6{stroke-width:0.04631px;}.cls-5{fill:none;stroke-width:0.18672px;}.cls-6{stroke:#000;}</style></defs><title>ACEM_Tagline_Landscape_Merriweather</title><path class="cls-1" d="M123.93269,43.19166v-1.001l1.624-.1709,6.335-17.60254h1.78223l6.22558,17.60254,1.64746.1709v1.001h-5.8955v-1.001l2.29492-.1709-1.3916-4.126h-7.97071l-1.416,4.126,2.25781.1709v1.001Zm7.89746-14.79492-2.832,8.30078h7.1416l-2.832-8.41016-.74512-2.51562Z" transform="translate(-24.55765 -8.1784)"/><path class="cls-1" d="M153.90144,43.41139a1.71,1.71,0,0,1-.86035-.18262c-.208-.123-.31153-.38672-.31153-.79395v-1.123a9.33548,9.33548,0,0,1-.90918.73828,8.77563,8.77563,0,0,1-1.15332.70215,7.46132,7.46132,0,0,1-1.31836.51855,5.01841,5.01841,0,0,1-1.40429.20215,5.26936,5.26936,0,0,1-1.95313-.31836,2.85761,2.85761,0,0,1-1.28125-.98828,4.344,4.344,0,0,1-.70215-1.69727,12.11081,12.11081,0,0,1-.21387-2.4414v-7.458l-1.51367-.40332v-.83008l2.84375-.293h.0127l.415.26953v8.34961a15.49649,15.49649,0,0,0,.10937,1.97656,3.5608,3.5608,0,0,0,.42774,1.36133,1.92448,1.92448,0,0,0,.89062.78711,3.66645,3.66645,0,0,0,1.49024.25684,4.45,4.45,0,0,0,1.23242-.1709,6.97238,6.97238,0,0,0,1.1289-.42773,6.60071,6.60071,0,0,0,.97071-.56739,8.99012,8.99012,0,0,0,.74414-.5791v-9.7168l-1.97656-.416v-.83008l3.17382-.293h.02344l.53711.26953V42.19068h1.58789l-.01269.86621q-.41456.11133-.87891.23243A4.3725,4.3725,0,0,1,153.90144,43.41139Z" transform="translate(-24.55765 -8.1784)"/><path class="cls-1" d="M159.02741,42.42213V39.32252h1.19629l.3418,1.96484a1.5279,1.5279,0,0,0,.43945.39063,3.93355,3.93355,0,0,0,.72071.35351,5.47137,5.47137,0,0,0,.915.25684,5.24983,5.24983,0,0,0,1.0127.09765,3.93453,3.93453,0,0,0,2.50293-.63476,2.12684,2.12684,0,0,0,.76855-1.7334,2.02866,2.02866,0,0,0-.2373-1.001,2.46885,2.46885,0,0,0-.71387-.77539,6.216,6.216,0,0,0-1.18457-.65332q-.70752-.30468-1.64746-.63476a11.48334,11.48334,0,0,1-1.71582-.76856,5.01182,5.01182,0,0,1-1.23242-.94629,3.58591,3.58591,0,0,1-.74512-1.19629,4.293,4.293,0,0,1-.25-1.51953,2.7682,2.7682,0,0,1,.39649-1.47754,3.62179,3.62179,0,0,1,1.05664-1.09765,5.0258,5.0258,0,0,1,1.52539-.69043,6.76612,6.76612,0,0,1,1.79492-.23731,9.28279,9.28279,0,0,1,1.34863.09082,10.38148,10.38148,0,0,1,1.09863.21973,7.27206,7.27206,0,0,1,.81739.2627q.33544.13476.50683.208v2.92969H166.6573l-.39063-1.88086a.76893.76893,0,0,0-.33594-.30469,3.00306,3.00306,0,0,0-.59179-.23242,5.508,5.508,0,0,0-.751-.15234,6.375,6.375,0,0,0-.83691-.05469,4.05825,4.05825,0,0,0-1.11621.12793,3.21215,3.21215,0,0,0-.93458.40332,2.06133,2.06133,0,0,0-.64062.65235,1.66159,1.66159,0,0,0-.23828.8789,2.37486,2.37486,0,0,0,.293,1.22754,2.80892,2.80892,0,0,0,.76953.8418,4.94853,4.94853,0,0,0,1.08594.59277q.61083.24317,1.24609.5.82909.3296,1.61133.67774a6.77134,6.77134,0,0,1,1.38476.81152,3.59918,3.59918,0,0,1,.96485,1.11035,3.23509,3.23509,0,0,1,.35937,1.58789,3.63025,3.63025,0,0,1-.37793,1.67774,3.5344,3.5344,0,0,1-1.06152,1.24511,4.91637,4.91637,0,0,1-1.624.76953,7.66415,7.66415,0,0,1-2.06348.2627,8.01556,8.01556,0,0,1-1.18945-.09766,12.56852,12.56852,0,0,1-1.252-.25683q-.60937-.15821-1.1289-.3418A4.86836,4.86836,0,0,1,159.02741,42.42213Z" transform="translate(-24.55765 -8.1784)"/><path class="cls-1" d="M172.69929,40.72584V30.72877h-1.92774v-.95313c.11329-.01562.24414-.03808.39063-.0664s.293-.05664.43945-.08594a3.6258,3.6258,0,0,0,.39649-.09766,1.05273,1.05273,0,0,0,.25-.10351.73529.73529,0,0,0,.30468-.27442,2.28855,2.28855,0,0,0,.208-.458q.07325-.21973.17676-.59766c.06934-.25293.14062-.51074.21387-.77539s.13867-.5127.19531-.74512q.085-.34716.11035-.50683h1v3.27148h4.57813v1.39258H174.4571v8.33691q0,1.03712.05566,1.63574a2.27441,2.27441,0,0,0,.22559.89747.73593.73593,0,0,0,.48828.37207,3.88621,3.88621,0,0,0,.8418.07324h.01269a6.12118,6.12118,0,0,0,.83594-.06153,8.499,8.499,0,0,0,.87305-.16406q.42772-.104.79394-.22656a4.57139,4.57139,0,0,0,.58594-.23145h.01172l.28125.8545a4.06177,4.06177,0,0,1-.75781.42089,9.40548,9.40548,0,0,1-1.08594.40918,11.59246,11.59246,0,0,1-1.19629.30469,5.66739,5.66739,0,0,1-1.11035.123h-.02539a4.24188,4.24188,0,0,1-1.06152-.123,1.84392,1.84392,0,0,1-.81153-.43262,2.0639,2.0639,0,0,1-.52539-.84277A4.07615,4.07615,0,0,1,172.69929,40.72584Z" transform="translate(-24.55765 -8.1784)"/><path class="cls-1" d="M181.30573,43.19166v-.93945l2.02637-.15918V30.78932l-2.01465-.40235v-.98926l3.05274-.36621h.06054l.43946.36621V30.301l-.01172,1.35547h.01172q.07323-.06151.28125-.28711.20654-.22558.53027-.52539.32373-.29883.7627-.64062a6.54673,6.54673,0,0,1,.97656-.623,6.32247,6.32247,0,0,1,1.166-.46289,4.72507,4.72507,0,0,1,1.33692-.18359,2.6035,2.6035,0,0,1,.4209.03027,1.87591,1.87591,0,0,1,.31152.0791V30.9358a1.62691,1.62691,0,0,0-.37793-.12793,2.63081,2.63081,0,0,0-.66016-.0791,6.7033,6.7033,0,0,0-1.5625.16992,6.87429,6.87429,0,0,0-1.26269.42773,7.17073,7.17073,0,0,0-.9834.543q-.42627.28712-.71973.51953V42.093l3.34473.15918v.93945Z" transform="translate(-24.55765 -8.1784)"/><path class="cls-1" d="M192.47566,39.54127a3.4243,3.4243,0,0,1,.33593-1.54395,3.78175,3.78175,0,0,1,.92774-1.19043,5.49522,5.49522,0,0,1,1.39746-.86621,10.32333,10.32333,0,0,1,1.752-.58008,16.54285,16.54285,0,0,1,1.9834-.34179q1.03711-.11573,2.08789-.12793v-.80567a8.081,8.081,0,0,0-.14648-1.65429,2.66394,2.66394,0,0,0-.50684-1.13477,2.07462,2.07462,0,0,0-.96484-.65332,4.7758,4.7758,0,0,0-1.53223-.207,6.36183,6.36183,0,0,0-1.46484.16992,10.73656,10.73656,0,0,0-1.3418.40918,10.14623,10.14623,0,0,0-1.11133.49512q-.48779.25488-.78125.43945h-.01172l-.53711-1.01367a3.86667,3.86667,0,0,1,.70117-.458,12.62331,12.62331,0,0,1,1.34278-.63476,13.62848,13.62848,0,0,1,1.72754-.56739,7.94411,7.94411,0,0,1,3.98535.01856,3.08367,3.08367,0,0,1,1.39746.84179,3.37228,3.37228,0,0,1,.76953,1.49512,9.25534,9.25534,0,0,1,.23242,2.23438v8.32519h1.58594v.85449q-.19482.04834-.47559.11622-.28125.06591-.58593.12207c-.20313.03613-.40918.0664-.61621.09179a5.11544,5.11544,0,0,1-.56836.03614,3.08483,3.08483,0,0,1-.4209-.02442.59664.59664,0,0,1-.29883-.12207.55764.55764,0,0,1-.17676-.29883,2.18775,2.18775,0,0,1-.05469-.55566V41.33619q-.2578.21972-.68359.58008a7.80194,7.80194,0,0,1-1.00781.708,7.1347,7.1347,0,0,1-1.28125.59765,4.42248,4.42248,0,0,1-1.4961.251,5.39037,5.39037,0,0,1-1.58593-.23242,3.74977,3.74977,0,0,1-1.33106-.71387,3.40316,3.40316,0,0,1-.90918-1.2207A4.22724,4.22724,0,0,1,192.47566,39.54127Zm4.78515,2.56445a3.03264,3.03264,0,0,0,.89063-.14648,6.54916,6.54916,0,0,0,.9707-.39063,9.565,9.565,0,0,0,.96484-.5498q.46875-.3047.873-.62207v-4.3711a15.42675,15.42675,0,0,0-2.80859.251,7.59734,7.59734,0,0,0-2.04395.665,3.388,3.388,0,0,0-1.251,1.03711,2.32892,2.32892,0,0,0-.42773,1.36719,3.39336,3.39336,0,0,0,.21973,1.30664,2.18946,2.18946,0,0,0,.60449.84863,2.31768,2.31768,0,0,0,.90332.46387A4.20432,4.20432,0,0,0,197.26081,42.10572Z" transform="translate(-24.55765 -8.1784)"/><path class="cls-1" d="M206.28132,43.19166v-1.001l2.27051-.1709V24.1731l-2.19727-.23144V23.1233l3.51563-.40234h.01172l.42773.30468V42.01978l2.42969.1709v1.001Z" transform="translate(-24.55765 -8.1784)"/><path class="cls-1" d="M214.80183,39.54127a3.42444,3.42444,0,0,1,.33593-1.54395,3.78175,3.78175,0,0,1,.92774-1.19043,5.49522,5.49522,0,0,1,1.39746-.86621,10.32333,10.32333,0,0,1,1.75195-.58008,16.54354,16.54354,0,0,1,1.9834-.34179q1.03712-.11573,2.08789-.12793v-.80567a8.081,8.081,0,0,0-.14648-1.65429,2.66394,2.66394,0,0,0-.50684-1.13477,2.07462,2.07462,0,0,0-.96484-.65332,4.7758,4.7758,0,0,0-1.53223-.207,6.3619,6.3619,0,0,0-1.46484.16992,10.73707,10.73707,0,0,0-1.3418.40918,10.14709,10.14709,0,0,0-1.11133.49512q-.48779.25488-.78125.43945h-.01172l-.53711-1.01367a3.86649,3.86649,0,0,1,.70118-.458,12.62307,12.62307,0,0,1,1.34277-.63476,13.629,13.629,0,0,1,1.72754-.56739,7.94411,7.94411,0,0,1,3.98535.01856,3.08367,3.08367,0,0,1,1.39746.84179,3.37218,3.37218,0,0,1,.76953,1.49512,9.25534,9.25534,0,0,1,.23242,2.23438v8.32519H226.63v.85449q-.19482.04834-.47558.11622-.28125.06591-.58594.12207c-.20313.03613-.40918.0664-.61621.09179a5.11544,5.11544,0,0,1-.56836.03614,3.08483,3.08483,0,0,1-.4209-.02442.59672.59672,0,0,1-.29883-.12207.55764.55764,0,0,1-.17676-.29883,2.18782,2.18782,0,0,1-.05468-.55566V41.33619q-.25782.21972-.6836.58008a7.80125,7.80125,0,0,1-1.00781.708,7.1347,7.1347,0,0,1-1.28125.59765,4.42246,4.42246,0,0,1-1.49609.251,5.39044,5.39044,0,0,1-1.58594-.23242,3.74985,3.74985,0,0,1-1.33106-.71387,3.40316,3.40316,0,0,1-.90918-1.2207A4.2274,4.2274,0,0,1,214.80183,39.54127Zm4.78515,2.56445a3.03264,3.03264,0,0,0,.89063-.14648,6.54916,6.54916,0,0,0,.9707-.39063,9.56621,9.56621,0,0,0,.96485-.5498q.46875-.3047.873-.62207v-4.3711a15.42675,15.42675,0,0,0-2.80859.251,7.59734,7.59734,0,0,0-2.04395.665,3.38794,3.38794,0,0,0-1.251,1.03711A2.32886,2.32886,0,0,0,216.755,39.346a3.39336,3.39336,0,0,0,.21973,1.30664,2.18956,2.18956,0,0,0,.60449.84863,2.31768,2.31768,0,0,0,.90332.46387A4.20432,4.20432,0,0,0,219.587,42.10572Z" transform="translate(-24.55765 -8.1784)"/><path class="cls-1" d="M229.1446,42.42213V39.32252h1.19629l.3418,1.96484a1.52777,1.52777,0,0,0,.43945.39063,3.93344,3.93344,0,0,0,.7207.35351,5.47177,5.47177,0,0,0,.915.25684,5.24983,5.24983,0,0,0,1.0127.09765,3.93453,3.93453,0,0,0,2.50293-.63476,2.12684,2.12684,0,0,0,.76855-1.7334,2.02866,2.02866,0,0,0-.2373-1.001,2.46885,2.46885,0,0,0-.71387-.77539,6.216,6.216,0,0,0-1.18457-.65332q-.70752-.30468-1.64746-.63476a11.48334,11.48334,0,0,1-1.71582-.76856,5.01182,5.01182,0,0,1-1.23242-.94629,3.58591,3.58591,0,0,1-.74512-1.19629,4.293,4.293,0,0,1-.25-1.51953,2.76828,2.76828,0,0,1,.39648-1.47754,3.622,3.622,0,0,1,1.05664-1.09765,5.026,5.026,0,0,1,1.52539-.69043,6.76625,6.76625,0,0,1,1.79493-.23731,9.28279,9.28279,0,0,1,1.34863.09082,10.38148,10.38148,0,0,1,1.09863.21973,7.27206,7.27206,0,0,1,.81739.2627q.33545.13476.50683.208v2.92969h-1.08594l-.39062-1.88086a.76893.76893,0,0,0-.33594-.30469,3.00316,3.00316,0,0,0-.5918-.23242,5.50753,5.50753,0,0,0-.751-.15234,6.37507,6.37507,0,0,0-.83692-.05469,4.05834,4.05834,0,0,0-1.11621.12793,3.21209,3.21209,0,0,0-.93457.40332,2.06122,2.06122,0,0,0-.64062.65235,1.6615,1.6615,0,0,0-.23828.8789,2.375,2.375,0,0,0,.293,1.22754,2.809,2.809,0,0,0,.76954.8418,4.94845,4.94845,0,0,0,1.08593.59277q.61085.24317,1.2461.5.82909.3296,1.61133.67774a6.77161,6.77161,0,0,1,1.38476.81152,3.599,3.599,0,0,1,.96484,1.11035,3.23509,3.23509,0,0,1,.35938,1.58789,3.63038,3.63038,0,0,1-.37793,1.67774,3.53451,3.53451,0,0,1-1.06152,1.24511,4.91633,4.91633,0,0,1-1.624.76953,7.664,7.664,0,0,1-2.06347.2627,8.01579,8.01579,0,0,1-1.18946-.09766,12.56891,12.56891,0,0,1-1.252-.25683q-.60937-.15821-1.12891-.3418A4.8682,4.8682,0,0,1,229.1446,42.42213Z" transform="translate(-24.55765 -8.1784)"/><path class="cls-1" d="M241.18171,43.19166v-1.001l2.25781-.15918V30.78932L241.377,30.387v-.98926l3.332-.36621h.06055l.42774.36621V42.0315l2.25781.15918v1.001Zm2.709-16.834a1.02883,1.02883,0,0,1-.85351-.38378,1.45322,1.45322,0,0,1-.30567-.93457,2.04142,2.04142,0,0,1,.07911-.56739,1.52849,1.52849,0,0,1,.24414-.49414,1.16633,1.16633,0,0,1,.42187-.34765,1.311,1.311,0,0,1,.59766-.12793h.01172a1.08872,1.08872,0,0,1,.51367.11523,1.20378,1.20378,0,0,1,.37207.30566,1.27089,1.27089,0,0,1,.22559.42676,1.63369,1.63369,0,0,1,.07324.48242,2.01513,2.01513,0,0,1-.085.58594,1.46343,1.46343,0,0,1-.251.48828,1.17061,1.17061,0,0,1-.4209.33008,1.41181,1.41181,0,0,1-.61035.12109Z" transform="translate(-24.55765 -8.1784)"/><path class="cls-1" d="M249.628,39.54127a3.42431,3.42431,0,0,1,.33594-1.54395,3.78158,3.78158,0,0,1,.92773-1.19043,5.49522,5.49522,0,0,1,1.39746-.86621,10.32345,10.32345,0,0,1,1.752-.58008,16.543,16.543,0,0,1,1.98339-.34179q1.03712-.11573,2.08789-.12793v-.80567a8.08027,8.08027,0,0,0-.14648-1.65429,2.66394,2.66394,0,0,0-.50684-1.13477,2.07462,2.07462,0,0,0-.96484-.65332,4.77576,4.77576,0,0,0-1.53223-.207,6.3619,6.3619,0,0,0-1.46484.16992,10.73758,10.73758,0,0,0-1.3418.40918A10.14709,10.14709,0,0,0,251.044,31.51q-.48779.25488-.78125.43945h-.01171l-.53711-1.01367a3.8659,3.8659,0,0,1,.70117-.458,12.624,12.624,0,0,1,1.34277-.63476,13.629,13.629,0,0,1,1.72754-.56739,7.94411,7.94411,0,0,1,3.98535.01856,3.08367,3.08367,0,0,1,1.39746.84179,3.37218,3.37218,0,0,1,.76953,1.49512,9.25529,9.25529,0,0,1,.23243,2.23438v8.32519h1.58593v.85449q-.19482.04834-.47558.11622-.28125.06591-.58594.12207c-.20312.03613-.40918.0664-.61621.09179a5.11529,5.11529,0,0,1-.56836.03614,3.08493,3.08493,0,0,1-.4209-.02442.59672.59672,0,0,1-.29883-.12207.55757.55757,0,0,1-.17675-.29883,2.18775,2.18775,0,0,1-.05469-.55566V41.33619q-.25782.21972-.6836.58008a7.80125,7.80125,0,0,1-1.00781.708,7.13438,7.13438,0,0,1-1.28125.59765,4.42242,4.42242,0,0,1-1.49609.251,5.39044,5.39044,0,0,1-1.58594-.23242,3.74972,3.74972,0,0,1-1.33105-.71387,3.40293,3.40293,0,0,1-.90918-1.2207A4.22723,4.22723,0,0,1,249.628,39.54127Zm4.78516,2.56445a3.03263,3.03263,0,0,0,.89062-.14648,6.54916,6.54916,0,0,0,.9707-.39063,9.56621,9.56621,0,0,0,.96485-.5498q.46875-.3047.873-.62207v-4.3711a15.42675,15.42675,0,0,0-2.80859.251,7.59715,7.59715,0,0,0-2.04394.665,3.38789,3.38789,0,0,0-1.251,1.03711,2.32886,2.32886,0,0,0-.42774,1.36719,3.39355,3.39355,0,0,0,.21973,1.30664,2.18966,2.18966,0,0,0,.60449.84863,2.31768,2.31768,0,0,0,.90332.46387A4.20439,4.20439,0,0,0,254.41316,42.10572Z" transform="translate(-24.55765 -8.1784)"/><path class="cls-1" d="M263.56843,43.19166v-1.001l1.709-.1709V30.78932l-2.01367-.40235v-.98926l3.07617-.36621h.06055l.43945.36621v1.15918l-.02343.64746a7.89523,7.89523,0,0,1,1.02539-.74511,11.67976,11.67976,0,0,1,1.34179-.71973,9.88313,9.88313,0,0,1,1.502-.543,5.64144,5.64144,0,0,1,1.48925-.21387,4.69386,4.69386,0,0,1,1.9961.36622,2.76082,2.76082,0,0,1,1.21387,1.09863,4.97227,4.97227,0,0,1,.60449,1.83691,17.76347,17.76347,0,0,1,.165,2.59473V42.0315l1.90429.15918v1.001h-5.41992v-1.001l1.75781-.15918V34.87916a16.31747,16.31747,0,0,0-.10351-1.96,3.668,3.668,0,0,0-.42188-1.38574,2.00112,2.00112,0,0,0-.89648-.82325,3.60407,3.60407,0,0,0-1.53223-.27441,4.30717,4.30717,0,0,0-1.166.16992,8.33028,8.33028,0,0,0-1.19043.43945,10.80393,10.80393,0,0,0-1.11621.59278,9.5353,9.5353,0,0,0-.93457.64062v9.74121l1.85546.1709v1.001Z" transform="translate(-24.55765 -8.1784)"/><path class="cls-1" d="M296.503,43.47291a8.90139,8.90139,0,0,1-3.61914-.69629,7.39717,7.39717,0,0,1-2.668-1.959,8.54415,8.54415,0,0,1-1.64746-3.05176,13.19023,13.19023,0,0,1-.56152-3.96094,9.9125,9.9125,0,0,1,.69531-3.75391,9.38157,9.38157,0,0,1,1.89258-2.97265,8.56026,8.56026,0,0,1,6.25-2.66114,13.62676,13.62676,0,0,1,1.64843.09766q.80567.09814,1.501.23145.69581.13476,1.24512.26269.54932.12891.86718.20215l-.208,3.97852h-1.123l-.47559-2.89258a3.56272,3.56272,0,0,0-1.36718-.52539,11.87256,11.87256,0,0,0-2.57618-.23145,5.46815,5.46815,0,0,0-2.44726.55567,5.72673,5.72673,0,0,0-1.959,1.59277,7.78592,7.78592,0,0,0-1.30664,2.5332,11.15054,11.15054,0,0,0-.47656,3.3877,14.36389,14.36389,0,0,0,.37305,3.31347,8.82337,8.82337,0,0,0,1.15332,2.79,6.041,6.041,0,0,0,1.97754,1.92774,5.4342,5.4342,0,0,0,2.85644.7207,11.52216,11.52216,0,0,0,1.40332-.07324,6.86058,6.86058,0,0,0,1.01368-.19531,3.52393,3.52393,0,0,0,.73828-.293,6.76768,6.76768,0,0,0,.58007-.35449l.95215-2.31836,1.09864.14648-.63477,3.23438a3.47741,3.47741,0,0,0-.93945.17675q-.45264.15381-1.01953.33008a11.544,11.544,0,0,1-1.33106.31738A10.72668,10.72668,0,0,1,296.503,43.47291Z" transform="translate(-24.55765 -8.1784)"/><path class="cls-1" d="M304.52351,36.14869a7.86714,7.86714,0,0,1,.5498-3.02148,7.12888,7.12888,0,0,1,1.44629-2.27051,6.27189,6.27189,0,0,1,2.03223-1.42871,5.76546,5.76546,0,0,1,2.31933-.49414,6.26112,6.26112,0,0,1,2.86817.59765,5.21485,5.21485,0,0,1,1.89843,1.61133,6.69655,6.69655,0,0,1,1.04981,2.33789,11.66316,11.66316,0,0,1,.32324,2.77735,7.88925,7.88925,0,0,1-.54883,3.02148,7.1846,7.1846,0,0,1-1.44629,2.27051,6.26469,6.26469,0,0,1-2.03906,1.42773,5.79132,5.79132,0,0,1-2.32519.49512,6.22117,6.22117,0,0,1-2.86231-.59863,5.20894,5.20894,0,0,1-1.89258-1.61133,6.68865,6.68865,0,0,1-1.0498-2.33789A11.655,11.655,0,0,1,304.52351,36.14869Zm6.22558,6.042a4.14862,4.14862,0,0,0,1.78223-.37207,3.54134,3.54134,0,0,0,1.34277-1.10547,5.39237,5.39237,0,0,0,.84864-1.81836,9.576,9.576,0,0,0,.29882-2.52734,11.663,11.663,0,0,0-.22558-2.33691,6.32928,6.32928,0,0,0-.73242-1.96,3.92137,3.92137,0,0,0-1.3125-1.3545,3.676,3.676,0,0,0-1.97754-.501,4.16592,4.16592,0,0,0-1.77637.36718,3.49377,3.49377,0,0,0-1.33594,1.09766,5.36054,5.36054,0,0,0-.84863,1.81934,9.58327,9.58327,0,0,0-.29981,2.53906,11.75883,11.75883,0,0,0,.22657,2.35644,6.19294,6.19294,0,0,0,.73242,1.959,3.8769,3.8769,0,0,0,1.3125,1.34277A3.6913,3.6913,0,0,0,310.74909,42.19068Z" transform="translate(-24.55765 -8.1784)"/><path class="cls-1" d="M319.40437,43.19166v-1.001l2.2705-.1709V24.1731l-2.19726-.23144V23.1233l3.51562-.40234h.01172l.42774.30468V42.01978l2.42968.1709v1.001Z" transform="translate(-24.55765 -8.1784)"/><path class="cls-1" d="M327.8028,43.19166v-1.001l2.27051-.1709V24.1731l-2.19726-.23144V23.1233l3.51562-.40234h.01172l.42773.30468V42.01978l2.42969.1709v1.001Z" transform="translate(-24.55765 -8.1784)"/><path class="cls-1" d="M342.26862,43.47291a5.874,5.874,0,0,1-2.57031-.53711,5.20907,5.20907,0,0,1-1.873-1.50781,6.72152,6.72152,0,0,1-1.1416-2.30762,10.62084,10.62084,0,0,1-.38476-2.94824,8.46953,8.46953,0,0,1,.48242-2.92285,7.02679,7.02679,0,0,1,1.33691-2.28907,5.96844,5.96844,0,0,1,4.52832-2.02636,4.5477,4.5477,0,0,1,3.41211,1.26953,5.31458,5.31458,0,0,1,1.31153,3.68652q0,.69581-.01758,1.208a4.41974,4.41974,0,0,1-.11621.9043h-9.05762v.207a1.728,1.728,0,0,0,.01172.207,8.35065,8.35065,0,0,0,.42187,2.55762,5.63217,5.63217,0,0,0,1.00684,1.81933,3.96,3.96,0,0,0,1.44043,1.08008,4.34,4.34,0,0,0,1.74609.35352,5.81368,5.81368,0,0,0,1.1045-.10938,7.875,7.875,0,0,0,1.09277-.293,6.68294,6.68294,0,0,0,.97656-.42773,3.70046,3.70046,0,0,0,.74414-.51172l.36621.83008a4.69334,4.69334,0,0,1-.90332.68945,7.0569,7.0569,0,0,1-1.17773.56152,8.46444,8.46444,0,0,1-1.34277.37207A7.40915,7.40915,0,0,1,342.26862,43.47291ZM342.171,30.179a4.32718,4.32718,0,0,0-1.49024.25,3.02186,3.02186,0,0,0-1.20214.81836,4.39339,4.39339,0,0,0-.84864,1.46485,7.97194,7.97194,0,0,0-.41406,2.20312h7.17773c.01563-.1875.03028-.376.042-.56738q.019-.28711.01855-.56836a5.25927,5.25927,0,0,0-.18945-1.45215,3.02979,3.02979,0,0,0-.5918-1.13574,2.755,2.755,0,0,0-1.01953-.74414A3.70567,3.70567,0,0,0,342.171,30.179Z" transform="translate(-24.55765 -8.1784)"/><path class="cls-1" d="M355.50007,38.21119a6.54128,6.54128,0,0,1-1.79492-.23242,3.045,3.045,0,0,0-.86621.84863,2.02847,2.02847,0,0,0-.31739,1.1416,1.61824,1.61824,0,0,0,.18946.81836,1.32169,1.32169,0,0,0,.55468.51856,2.89241,2.89241,0,0,0,.9043.26855,8.62388,8.62388,0,0,0,1.24414.0791H358.711a6.70307,6.70307,0,0,1,1.9707.25,3.33126,3.33126,0,0,1,1.28223.69629,2.50823,2.50823,0,0,1,.68945,1.07422,4.38778,4.38778,0,0,1,.208,1.38477,3.87987,3.87987,0,0,1-.47656,1.8623,4.79214,4.79214,0,0,1-1.36719,1.55567,6.95165,6.95165,0,0,1-2.16016,1.0625,9.64714,9.64714,0,0,1-2.84473.39062h-.01269a11.35741,11.35741,0,0,1-2.6543-.28125A6.20382,6.20382,0,0,1,351.38,48.844a3.6804,3.6804,0,0,1-1.21386-1.25781,3.27648,3.27648,0,0,1-.416-1.64844A3.85441,3.85441,0,0,1,349.9278,44.76a4.38222,4.38222,0,0,1,.46387-1.0127,4.22562,4.22562,0,0,1,.65332-.81152,4.32377,4.32377,0,0,1,.74414-.58594,2.19529,2.19529,0,0,1-.623-.76953,2.37265,2.37265,0,0,1-.21875-1.0498,3.26933,3.26933,0,0,1,.44531-1.69629,4.2364,4.2364,0,0,1,1.21484-1.30664,4.33945,4.33945,0,0,1-1.67285-1.51953,4.16983,4.16983,0,0,1-.62207-2.30079,4.21622,4.21622,0,0,1,.48144-2.03906,4.68478,4.68478,0,0,1,1.26368-1.49512,5.73137,5.73137,0,0,1,1.76367-.92187,6.40988,6.40988,0,0,1,1.9834-.31738h.01269a7.66379,7.66379,0,0,1,1.9834.25,4.83558,4.83558,0,0,1,1.64258.77539,3.35665,3.35665,0,0,1,.41406-.28125,4.30476,4.30476,0,0,1,.63477-.29883,5.77846,5.77846,0,0,1,.8125-.23828,4.32827,4.32827,0,0,1,.92187-.09766h.92774v1.68555h-2.918a4.11306,4.11306,0,0,1,.56152,1.09765,4.2672,4.2672,0,0,1,.208,1.37989,4.66515,4.66515,0,0,1-.44629,2.05664,4.92434,4.92434,0,0,1-1.19629,1.58105,5.31817,5.31817,0,0,1-1.74512,1.01367,6.25473,6.25473,0,0,1-2.10644.35352Zm-.24414,5.01758a9.98664,9.98664,0,0,1-1.43457-.09766,5.58848,5.58848,0,0,1-1.20215-.30566,3.81654,3.81654,0,0,0-.78125,1.09277,3.46457,3.46457,0,0,0-.33008,1.55664,3.243,3.243,0,0,0,.27539,1.36035,2.65785,2.65785,0,0,0,.8418,1.03223,4.15158,4.15158,0,0,0,1.43457.6582,7.90877,7.90877,0,0,0,2.03809.23243h.02539a9.11579,9.11579,0,0,0,2.07422-.21973,5.47843,5.47843,0,0,0,1.61132-.62891,3.05975,3.05975,0,0,0,1.03809-1.001,2.46572,2.46572,0,0,0,.36621-1.32422,4.299,4.299,0,0,0-.10352-.97657,1.42786,1.42786,0,0,0-.43945-.74414,2.2795,2.2795,0,0,0-.96484-.4707,6.82433,6.82433,0,0,0-1.666-.16406Zm.46387-6.21387h.01269a3.3775,3.3775,0,0,0,2.5625-.89746,3.70715,3.70715,0,0,0,.85547-2.6543,3.22866,3.22866,0,0,0-.916-2.55761,3.75051,3.75051,0,0,0-2.55078-.79981H355.671a5.5357,5.5357,0,0,0-1.34278.1582,2.85355,2.85355,0,0,0-1.11718.54981,2.73668,2.73668,0,0,0-.76856,1.03125,3.97143,3.97143,0,0,0-.28711,1.61816,4.58052,4.58052,0,0,0,.208,1.39746,2.95159,2.95159,0,0,0,.64649,1.12891,3.06631,3.06631,0,0,0,1.11132.751A4.2208,4.2208,0,0,0,355.7198,37.0149Z" transform="translate(-24.55765 -8.1784)"/><path class="cls-1" d="M370.86921,43.47291a5.874,5.874,0,0,1-2.57031-.53711,5.20907,5.20907,0,0,1-1.873-1.50781,6.72152,6.72152,0,0,1-1.1416-2.30762,10.62046,10.62046,0,0,1-.38477-2.94824,8.46953,8.46953,0,0,1,.48243-2.92285,7.02662,7.02662,0,0,1,1.33691-2.28907,5.96844,5.96844,0,0,1,4.52832-2.02636,4.54772,4.54772,0,0,1,3.41211,1.26953,5.31462,5.31462,0,0,1,1.31152,3.68652q0,.69581-.01758,1.208a4.419,4.419,0,0,1-.11621.9043h-9.05761v.207a1.726,1.726,0,0,0,.01172.207,8.35035,8.35035,0,0,0,.42187,2.55762,5.63217,5.63217,0,0,0,1.00684,1.81933,3.95987,3.95987,0,0,0,1.44043,1.08008,4.34,4.34,0,0,0,1.74609.35352,5.81358,5.81358,0,0,0,1.10449-.10938,7.87519,7.87519,0,0,0,1.09278-.293,6.68341,6.68341,0,0,0,.97656-.42773,3.70046,3.70046,0,0,0,.74414-.51172l.36621.83008a4.69334,4.69334,0,0,1-.90332.68945,7.057,7.057,0,0,1-1.17774.56152,8.46415,8.46415,0,0,1-1.34277.37207A7.409,7.409,0,0,1,370.86921,43.47291ZM370.77155,30.179a4.32708,4.32708,0,0,0-1.49023.25,3.02182,3.02182,0,0,0-1.20215.81836,4.39338,4.39338,0,0,0-.84863,1.46485,7.97194,7.97194,0,0,0-.41406,2.20312h7.17773c.01563-.1875.03027-.376.042-.56738.0127-.19141.01856-.38086.01856-.56836a5.25889,5.25889,0,0,0-.18946-1.45215,3.02978,3.02978,0,0,0-.59179-1.13574,2.75507,2.75507,0,0,0-1.01953-.74414A3.70576,3.70576,0,0,0,370.77155,30.179Z" transform="translate(-24.55765 -8.1784)"/><path class="cls-1" d="M125.29987,73.19166v-.98828l2.2461-.1836v-11.291h-2.60059v-.94043l2.60059-.45215V58.09205a5.21546,5.21546,0,0,1,.43945-2.13086,5.78176,5.78176,0,0,1,1.166-1.7334,5.58334,5.58334,0,0,1,1.67187-1.17187,4.64205,4.64205,0,0,1,1.94727-.43262,4.95709,4.95709,0,0,1,.84863.05469,3.79643,3.79643,0,0,1,.51855.12793v1.80664a2.69706,2.69706,0,0,0-.67773-.21973,5.29878,5.29878,0,0,0-1.20215-.12207,4.25481,4.25481,0,0,0-1.23926.165,2.21712,2.21712,0,0,0-.92773.543,2.43041,2.43041,0,0,0-.58594.99512,4.95911,4.95911,0,0,0-.20117,1.51953v1.84277h3.72363v1.39258h-3.72363v11.291l2.90527.1836v.98828Z" transform="translate(-24.55765 -8.1784)"/><path class="cls-1" d="M135.22468,66.14869a7.86733,7.86733,0,0,1,.5498-3.02148,7.12888,7.12888,0,0,1,1.44629-2.27051A6.27189,6.27189,0,0,1,139.253,59.428a5.7655,5.7655,0,0,1,2.31934-.49414,6.2611,6.2611,0,0,1,2.86816.59765,5.215,5.215,0,0,1,1.89844,1.61133,6.69672,6.69672,0,0,1,1.0498,2.33789,11.66316,11.66316,0,0,1,.32324,2.77735,7.88925,7.88925,0,0,1-.54882,3.02148,7.185,7.185,0,0,1-1.44629,2.27051,6.26473,6.26473,0,0,1-2.03907,1.42773,5.79132,5.79132,0,0,1-2.32519.49512,6.22117,6.22117,0,0,1-2.86231-.59863,5.20883,5.20883,0,0,1-1.89257-1.61133,6.68848,6.68848,0,0,1-1.04981-2.33789A11.655,11.655,0,0,1,135.22468,66.14869Zm6.22558,6.042a4.14862,4.14862,0,0,0,1.78223-.37207,3.54134,3.54134,0,0,0,1.34277-1.10547,5.39218,5.39218,0,0,0,.84864-1.81836,9.57552,9.57552,0,0,0,.29883-2.52734,11.663,11.663,0,0,0-.22559-2.33691,6.32928,6.32928,0,0,0-.73242-1.96,3.92137,3.92137,0,0,0-1.3125-1.3545,3.676,3.676,0,0,0-1.97754-.501,4.16592,4.16592,0,0,0-1.77637.36718,3.49377,3.49377,0,0,0-1.33594,1.09766,5.36073,5.36073,0,0,0-.84863,1.81934,9.58371,9.58371,0,0,0-.2998,2.53906,11.75884,11.75884,0,0,0,.22656,2.35644,6.19294,6.19294,0,0,0,.73242,1.959,3.877,3.877,0,0,0,1.3125,1.34277A3.6913,3.6913,0,0,0,141.45026,72.19068Z" transform="translate(-24.55765 -8.1784)"/><path class="cls-1" d="M150.22663,73.19166v-.93945L152.253,72.093V60.78932l-2.01465-.40235v-.98926l3.05274-.36621h.06054l.43946.36621V60.301l-.01172,1.35547h.01172q.07323-.06151.28125-.28711.20653-.22559.53027-.52539.32373-.29883.76269-.64062a6.54684,6.54684,0,0,1,.97657-.62305,6.32219,6.32219,0,0,1,1.166-.46289,4.72507,4.72507,0,0,1,1.33692-.18359,2.60327,2.60327,0,0,1,.42089.03027,1.876,1.876,0,0,1,.31153.0791V60.9358a1.62691,1.62691,0,0,0-.37793-.12793,2.63081,2.63081,0,0,0-.66016-.0791,6.7033,6.7033,0,0,0-1.5625.16992,6.874,6.874,0,0,0-1.26269.42773,7.17014,7.17014,0,0,0-.9834.543q-.42627.28711-.71973.51953V72.093l3.34473.15918v.93945Z" transform="translate(-24.55765 -8.1784)"/><path class="cls-1" d="M169.59968,73.19166v-1.001l2.16113-.18261V55.86939l-2.1123-.25586v-1.001h12.25586l.35449,3.626h-1.03809l-.64746-2.4541-7.01855-.085V63.096l4.82129-.06055.293-2.11133h1.12305v5.45606H178.669l-.293-2.13575-4.82129-.06152V72.0315l7.9834-.207,1.23242-3.13672,1.05078.35352-.79395,4.15039Z" transform="translate(-24.55765 -8.1784)"/><path class="cls-1" d="M185.85847,73.19166v-1.001l1.623-.1709V60.78932l-2.01367-.40235v-.98926l3.07617-.36621h.06055l.43945.36621v1.15918l-.02343.64746a8.3162,8.3162,0,0,1,1.01269-.74511,11.39819,11.39819,0,0,1,1.31836-.71973,10.02934,10.02934,0,0,1,1.44629-.543,5.07085,5.07085,0,0,1,1.41016-.21387,4.4048,4.4048,0,0,1,2.14258.45118,2.90467,2.90467,0,0,1,1.23828,1.40429,6.01518,6.01518,0,0,1,.89746-.60449,10.11937,10.11937,0,0,1,1.25781-.59766,11.39825,11.39825,0,0,1,1.43457-.46386,5.79787,5.79787,0,0,1,1.42773-.18946,4.919,4.919,0,0,1,1.97168.3418,2.77937,2.77937,0,0,1,1.23926,1.0625,4.799,4.799,0,0,1,.64649,1.82422,16.33846,16.33846,0,0,1,.18359,2.63086v7.17773l1.916.1709v1.001h-5.41993v-1.001l1.7461-.1709V64.91529a14.38714,14.38714,0,0,0-.11621-1.94043,3.82465,3.82465,0,0,0-.44629-1.41015,2.11033,2.11033,0,0,0-.93946-.86133,3.71826,3.71826,0,0,0-1.5996-.293,4.54754,4.54754,0,0,0-1.08594.13476,7.34765,7.34765,0,0,0-1.0625.34766,8.24431,8.24431,0,0,0-.958.4707,6.76946,6.76946,0,0,0-.7627.5,10.62594,10.62594,0,0,1,.19532,1.36719q.06151.74415.06054,1.64844v7.14062l1.92969.1709v1.001h-5.543v-1.001l1.85547-.15918V64.87916q0-1.12353-.085-1.96a3.68092,3.68092,0,0,0-.38476-1.38574,1.91706,1.91706,0,0,0-.86036-.82325,3.47487,3.47487,0,0,0-1.51367-.27441,4.133,4.133,0,0,0-1.1416.16992,8.28683,8.28683,0,0,0-1.17187.43945,10.1402,10.1402,0,0,0-1.09864.59278,10.42323,10.42323,0,0,0-.92187.64062v9.74121l1.80664.1709v1.001Z" transform="translate(-24.55765 -8.1784)"/><path class="cls-1" d="M216.60847,73.47291a5.874,5.874,0,0,1-2.57031-.53711,5.2089,5.2089,0,0,1-1.87305-1.50781,6.72152,6.72152,0,0,1-1.1416-2.30762,10.62046,10.62046,0,0,1-.38477-2.94824,8.46977,8.46977,0,0,1,.48242-2.92285,7.02664,7.02664,0,0,1,1.33692-2.28907,5.96844,5.96844,0,0,1,4.52832-2.02636,4.54772,4.54772,0,0,1,3.41211,1.26953A5.31462,5.31462,0,0,1,221.71,63.8899q0,.6958-.01758,1.208a4.419,4.419,0,0,1-.11621.9043h-9.05762v.207a1.728,1.728,0,0,0,.01172.207,8.35033,8.35033,0,0,0,.42188,2.55762,5.63215,5.63215,0,0,0,1.00683,1.81933,3.96,3.96,0,0,0,1.44043,1.08008,4.34007,4.34007,0,0,0,1.7461.35352,5.81365,5.81365,0,0,0,1.10449-.10938,7.87467,7.87467,0,0,0,1.09277-.293,6.68306,6.68306,0,0,0,.97657-.42773,3.70075,3.70075,0,0,0,.74414-.51172l.36621.83008a4.69334,4.69334,0,0,1-.90332.68945,7.057,7.057,0,0,1-1.17774.56152,8.46415,8.46415,0,0,1-1.34277.37207A7.409,7.409,0,0,1,216.60847,73.47291Zm-.09766-13.294a4.32708,4.32708,0,0,0-1.49023.25,3.02182,3.02182,0,0,0-1.20215.81836,4.39338,4.39338,0,0,0-.84863,1.46485,7.97191,7.97191,0,0,0-.41407,2.20312h7.17774c.01562-.1875.03027-.376.042-.56738.0127-.19141.01855-.38086.01855-.56836a5.25889,5.25889,0,0,0-.18945-1.45215,3.02965,3.02965,0,0,0-.5918-1.13574,2.75491,2.75491,0,0,0-1.01953-.74414A3.70567,3.70567,0,0,0,216.51081,60.179Z" transform="translate(-24.55765 -8.1784)"/><path class="cls-1" d="M224.17683,73.19166v-.93945l2.02636-.15918V60.78932l-2.01464-.40235v-.98926l3.05273-.36621h.06055l.43945.36621V60.301l-.01172,1.35547h.01172q.07325-.06151.28125-.28711.20655-.22559.53027-.52539.32373-.29883.7627-.64062a6.54725,6.54725,0,0,1,.97656-.62305,6.32229,6.32229,0,0,1,1.166-.46289,4.725,4.725,0,0,1,1.33691-.18359,2.60332,2.60332,0,0,1,.4209.03027,1.87591,1.87591,0,0,1,.31152.0791V60.9358a1.62653,1.62653,0,0,0-.37793-.12793,2.63073,2.63073,0,0,0-.66015-.0791,6.70318,6.70318,0,0,0-1.5625.16992,6.8744,6.8744,0,0,0-1.2627.42773,7.17132,7.17132,0,0,0-.9834.543q-.42627.28711-.71972.51953V72.093l3.34472.15918v.93945Z" transform="translate(-24.55765 -8.1784)"/><path class="cls-1" d="M241.01081,68.21119a6.54128,6.54128,0,0,1-1.79492-.23242,3.0451,3.0451,0,0,0-.86621.84863,2.02847,2.02847,0,0,0-.31738,1.1416,1.61834,1.61834,0,0,0,.18945.81836,1.32178,1.32178,0,0,0,.55469.51856,2.89235,2.89235,0,0,0,.90429.26855,8.624,8.624,0,0,0,1.24414.0791h3.29688a6.70307,6.70307,0,0,1,1.9707.25,3.33119,3.33119,0,0,1,1.28223.69629,2.50823,2.50823,0,0,1,.68945,1.07422,4.38778,4.38778,0,0,1,.208,1.38477,3.87987,3.87987,0,0,1-.47656,1.8623,4.79214,4.79214,0,0,1-1.36719,1.55567,6.95154,6.95154,0,0,1-2.16016,1.0625,9.64712,9.64712,0,0,1-2.84472.39062h-.0127a11.35741,11.35741,0,0,1-2.6543-.28125,6.20382,6.20382,0,0,1-1.96582-.80469,3.6804,3.6804,0,0,1-1.21386-1.25781,3.27648,3.27648,0,0,1-.416-1.64844,3.85411,3.85411,0,0,1,.17774-1.17773,4.3822,4.3822,0,0,1,.46386-1.0127,4.22562,4.22562,0,0,1,.65332-.81152,4.32377,4.32377,0,0,1,.74414-.58594,2.19529,2.19529,0,0,1-.623-.76953,2.37265,2.37265,0,0,1-.21875-1.0498,3.26933,3.26933,0,0,1,.44531-1.69629,4.2364,4.2364,0,0,1,1.21484-1.30664,4.33945,4.33945,0,0,1-1.67285-1.51953,4.16983,4.16983,0,0,1-.62207-2.30079,4.21611,4.21611,0,0,1,.48145-2.03906,4.68475,4.68475,0,0,1,1.26367-1.49512,5.73149,5.73149,0,0,1,1.76367-.92187,6.40993,6.40993,0,0,1,1.9834-.31738h.01269a7.66379,7.66379,0,0,1,1.9834.25,4.83558,4.83558,0,0,1,1.64258.77539,3.35665,3.35665,0,0,1,.41406-.28125,4.30476,4.30476,0,0,1,.63477-.29883,5.77846,5.77846,0,0,1,.8125-.23828,4.32827,4.32827,0,0,1,.92187-.09766h.92774v1.68555h-2.918a4.11306,4.11306,0,0,1,.56152,1.09765,4.26693,4.26693,0,0,1,.208,1.37989,4.665,4.665,0,0,1-.44629,2.05664,4.92419,4.92419,0,0,1-1.19629,1.581,5.31823,5.31823,0,0,1-1.74511,1.01367,6.25483,6.25483,0,0,1-2.10645.35352Zm-.24414,5.01758a9.98674,9.98674,0,0,1-1.43457-.09766,5.58848,5.58848,0,0,1-1.20215-.30566,3.81654,3.81654,0,0,0-.78125,1.09277,3.4647,3.4647,0,0,0-.33008,1.55664,3.243,3.243,0,0,0,.27539,1.36035,2.65785,2.65785,0,0,0,.8418,1.03223,4.15167,4.15167,0,0,0,1.43457.6582,7.90882,7.90882,0,0,0,2.03809.23243h.02539a9.11579,9.11579,0,0,0,2.07422-.21973,5.47861,5.47861,0,0,0,1.61133-.62891,3.05981,3.05981,0,0,0,1.03808-1.001,2.46572,2.46572,0,0,0,.36621-1.32422,4.29906,4.29906,0,0,0-.10351-.97657,1.42787,1.42787,0,0,0-.43946-.74414,2.27944,2.27944,0,0,0-.96484-.4707,6.82433,6.82433,0,0,0-1.666-.16406Zm.46387-6.21387h.01269a3.37749,3.37749,0,0,0,2.5625-.89746,3.7071,3.7071,0,0,0,.85547-2.6543,3.22869,3.22869,0,0,0-.916-2.55761,3.75053,3.75053,0,0,0-2.55078-.79981h-.0127a5.53556,5.53556,0,0,0-1.34277.1582,2.85359,2.85359,0,0,0-1.11719.54981,2.73668,2.73668,0,0,0-.76856,1.03125,3.97144,3.97144,0,0,0-.2871,1.61816,4.58052,4.58052,0,0,0,.208,1.39746,2.95159,2.95159,0,0,0,.64649,1.12891,3.06635,3.06635,0,0,0,1.11133.751A4.22071,4.22071,0,0,0,241.23054,67.0149Z" transform="translate(-24.55765 -8.1784)"/><path class="cls-1" d="M256.38,73.47291a5.874,5.874,0,0,1-2.57031-.53711,5.20907,5.20907,0,0,1-1.87305-1.50781,6.72152,6.72152,0,0,1-1.1416-2.30762,10.62084,10.62084,0,0,1-.38476-2.94824,8.46953,8.46953,0,0,1,.48242-2.92285,7.02679,7.02679,0,0,1,1.33691-2.28907,5.96844,5.96844,0,0,1,4.52832-2.02636A4.54772,4.54772,0,0,1,260.17,60.20338a5.31452,5.31452,0,0,1,1.31152,3.68652q0,.6958-.01757,1.208a4.41974,4.41974,0,0,1-.11621.9043h-9.05762v.207a1.726,1.726,0,0,0,.01172.207,8.35065,8.35065,0,0,0,.42187,2.55762,5.63217,5.63217,0,0,0,1.00684,1.81933A3.96,3.96,0,0,0,255.171,71.8733a4.34,4.34,0,0,0,1.74609.35352,5.81358,5.81358,0,0,0,1.10449-.10938,7.87519,7.87519,0,0,0,1.09278-.293,6.68294,6.68294,0,0,0,.97656-.42773,3.70046,3.70046,0,0,0,.74414-.51172l.36621.83008a4.69334,4.69334,0,0,1-.90332.68945,7.05728,7.05728,0,0,1-1.17773.56152,8.46427,8.46427,0,0,1-1.34278.37207A7.409,7.409,0,0,1,256.38,73.47291Zm-.09765-13.294a4.32718,4.32718,0,0,0-1.49024.25,3.02189,3.02189,0,0,0-1.20215.81836,4.39338,4.39338,0,0,0-.84863,1.46485,7.97194,7.97194,0,0,0-.41406,2.20312H259.505c.01563-.1875.03028-.376.042-.56738.0127-.19141.01856-.38086.01856-.56836a5.25927,5.25927,0,0,0-.18945-1.45215,3.02994,3.02994,0,0,0-.5918-1.13574,2.75507,2.75507,0,0,0-1.01953-.74414A3.70571,3.70571,0,0,0,256.2823,60.179Z" transform="translate(-24.55765 -8.1784)"/><path class="cls-1" d="M263.95905,73.19166v-1.001l1.709-.1709V60.78932l-2.01367-.40235v-.98926l3.07617-.36621h.06055l.43945.36621v1.15918l-.02344.64746a7.89662,7.89662,0,0,1,1.02539-.74511,11.67992,11.67992,0,0,1,1.3418-.71973,9.883,9.883,0,0,1,1.50195-.543,5.64157,5.64157,0,0,1,1.48926-.21387,4.69382,4.69382,0,0,1,1.99609.36622,2.76082,2.76082,0,0,1,1.21387,1.09863,4.9719,4.9719,0,0,1,.60449,1.83691,17.76347,17.76347,0,0,1,.165,2.59473V72.0315l1.9043.15918v1.001h-5.41992v-1.001l1.75781-.15918V64.87916a16.31728,16.31728,0,0,0-.10352-1.96,3.668,3.668,0,0,0-.42187-1.38574,2.00115,2.00115,0,0,0-.89649-.82325,3.604,3.604,0,0,0-1.53222-.27441,4.30718,4.30718,0,0,0-1.166.16992,8.33117,8.33117,0,0,0-1.19043.43945,10.806,10.806,0,0,0-1.11621.59278,9.53651,9.53651,0,0,0-.93457.64062v9.74121l1.85547.1709v1.001Z" transform="translate(-24.55765 -8.1784)"/><path class="cls-1" d="M280.54987,66.429a8.5865,8.5865,0,0,1,.43946-2.81933,7.14751,7.14751,0,0,1,1.33008-2.39258,6.48,6.48,0,0,1,2.17285-1.66016,7.1867,7.1867,0,0,1,3.99121-.54394c.34179.05371.666.11621.9707.18945q.45851.10986.83008.23828a6.1964,6.1964,0,0,1,.60449.23731l-.09765,3.35742h-1.11036l-.47656-2.31934a2.25891,2.25891,0,0,0-.87891-.501,4.30883,4.30883,0,0,0-1.3789-.19532,4.16129,4.16129,0,0,0-1.81934.39746,4.09886,4.09886,0,0,0-1.42871,1.13477,5.46589,5.46589,0,0,0-.93359,1.78223,7.6235,7.6235,0,0,0-.33594,2.33789,10.00345,10.00345,0,0,0,.3418,2.85058,6.05945,6.05945,0,0,0,.97656,2.02051,4.037,4.037,0,0,0,1.47754,1.208,4.26827,4.26827,0,0,0,1.84277.40332,6.22134,6.22134,0,0,0,1.13574-.10449,7.64554,7.64554,0,0,0,1.05567-.26856,7.41922,7.41922,0,0,0,.91015-.36621,4.59148,4.59148,0,0,0,.6836-.39648l.35351.68359a4.48377,4.48377,0,0,1-.86035.67774,7.32453,7.32453,0,0,1-1.123.56738,7.62983,7.62983,0,0,1-1.25782.38476,6.11444,6.11444,0,0,1-1.27539.14063,6.02475,6.02475,0,0,1-2.64258-.54981,5.5176,5.5176,0,0,1-1.917-1.501,6.5752,6.5752,0,0,1-1.17187-2.24024A9.55984,9.55984,0,0,1,280.54987,66.429Z" transform="translate(-24.55765 -8.1784)"/><path class="cls-1" d="M295.003,79.41724a4.33955,4.33955,0,0,1-.666-.05468,2.134,2.134,0,0,1-.48242-.11621V77.513a.95786.95786,0,0,0,.21387.06738c.09375.01953.19531.03613.30566.04883.10938.01172.22364.01953.3418.02441.11719.00391.22559.00586.32324.00586a3.8013,3.8013,0,0,0,1.04981-.14648,2.613,2.613,0,0,0,1.02539-.61621,5.788,5.788,0,0,0,1.02539-1.34961,14.25771,14.25771,0,0,0,1.03711-2.35547H298.213L293.294,60.55689l-1.18457-.28027v-.94043h5.28614v.94043l-2.02735.25684,2.74707,7.71484,1.36719,4.21094,1.33106-4.23633,2.34375-7.67774-1.79493-.26855v-.94043h4.71192v.94043l-1.34278.26855q-.79393,2.40528-1.3916,4.24219t-1.0498,3.2041q-.45117,1.36671-.7627,2.31934-.312.95216-.53125,1.59277-.21972.64161-.36621,1.03223c-.09765.25977-.17871.46777-.24414.62207q-.58593,1.45313-1.08594,2.55176a8.54886,8.54886,0,0,1-1.09277,1.83008,4.03876,4.03876,0,0,1-1.34863,1.10546A4.18041,4.18041,0,0,1,295.003,79.41724Z" transform="translate(-24.55765 -8.1784)"/><path class="cls-1" d="M314.53327,73.19166v-1.001l2.18555-.18261,2.123-16.1504-2.88086-.24414v-1.001h5.60351L325.92194,67.344l.9043,3.51563.915-3.51563,4.21191-12.73144h5.334v1.001l-2.73438.25586,2.27051,16.15039,2.29492.1709v1.001h-6.458v-1.001l2.32031-.1709-1.416-11.51171-.67187-5.06543-1.09864,3.54L327.00886,73.387h-.69629l-4.65039-13.02539-1.61133-4.89453-.5,5.0293L318.2198,72.01978l2.49023.1709v1.001Z" transform="translate(-24.55765 -8.1784)"/><path class="cls-1" d="M346.39362,73.47291a5.874,5.874,0,0,1-2.57031-.53711,5.20907,5.20907,0,0,1-1.873-1.50781,6.72152,6.72152,0,0,1-1.1416-2.30762,10.62084,10.62084,0,0,1-.38476-2.94824,8.46953,8.46953,0,0,1,.48242-2.92285,7.02679,7.02679,0,0,1,1.33691-2.28907,5.96844,5.96844,0,0,1,4.52832-2.02636,4.5477,4.5477,0,0,1,3.41211,1.26953,5.31458,5.31458,0,0,1,1.31153,3.68652q0,.6958-.01758,1.208a4.41974,4.41974,0,0,1-.11621.9043h-9.05762v.207a1.728,1.728,0,0,0,.01172.207,8.35065,8.35065,0,0,0,.42187,2.55762,5.63217,5.63217,0,0,0,1.00684,1.81933,3.96,3.96,0,0,0,1.44043,1.08008,4.34,4.34,0,0,0,1.74609.35352,5.81368,5.81368,0,0,0,1.1045-.10938,7.875,7.875,0,0,0,1.09277-.293,6.68294,6.68294,0,0,0,.97656-.42773,3.70046,3.70046,0,0,0,.74414-.51172l.36621.83008a4.69334,4.69334,0,0,1-.90332.68945,7.0569,7.0569,0,0,1-1.17773.56152,8.46444,8.46444,0,0,1-1.34277.37207A7.40915,7.40915,0,0,1,346.39362,73.47291ZM346.296,60.179a4.32718,4.32718,0,0,0-1.49024.25,3.02186,3.02186,0,0,0-1.20214.81836,4.39339,4.39339,0,0,0-.84864,1.46485,7.97194,7.97194,0,0,0-.41406,2.20312h7.17773c.01563-.1875.03028-.376.042-.56738q.019-.28712.01855-.56836a5.25927,5.25927,0,0,0-.18945-1.45215,3.02979,3.02979,0,0,0-.5918-1.13574,2.755,2.755,0,0,0-1.01953-.74414A3.70567,3.70567,0,0,0,346.296,60.179Z" transform="translate(-24.55765 -8.1784)"/><path class="cls-1" d="M359.40632,73.47291a5.20079,5.20079,0,0,1-2.03809-.416,4.86377,4.86377,0,0,1-1.75195-1.26269,6.29688,6.29688,0,0,1-1.2207-2.14258,9.14478,9.14478,0,0,1-.458-3.05176,8.87756,8.87756,0,0,1,.49414-2.99023,7.29706,7.29706,0,0,1,1.42285-2.43555,6.64307,6.64307,0,0,1,2.23926-1.64258,7.06685,7.06685,0,0,1,2.96-.59765,10.52379,10.52379,0,0,1,1.49609.10351q.71339.104,1.28711.23828V54.1858l-2.67285-.24414V53.1233l3.95508-.39063h.06152l.41407.33008V72.19068h1.5625v.85449q-.4629.10988-1.02539.23829a5.74953,5.74953,0,0,1-1.26954.12793,2.61183,2.61183,0,0,1-.42089-.03028.64065.64065,0,0,1-.29883-.1289.5537.5537,0,0,1-.17676-.30469,2.19632,2.19632,0,0,1-.05469-.54883v-1.002a7.20307,7.20307,0,0,1-.7998.751,5.9136,5.9136,0,0,1-1.02539.665,6.34048,6.34048,0,0,1-1.23926.47657A5.45394,5.45394,0,0,1,359.40632,73.47291Zm.71973-1.50195a4.16024,4.16024,0,0,0,1.19726-.1709,5.47084,5.47084,0,0,0,1.05567-.4336,5.2286,5.2286,0,0,0,.86035-.5791,3.54431,3.54431,0,0,0,.59765-.623V61.04517a1.06592,1.06592,0,0,0-.4082-.3291,3.85613,3.85613,0,0,0-.71484-.28027,6.11582,6.11582,0,0,0-.90235-.18945,7.06109,7.06109,0,0,0-.96484-.06739,5.38316,5.38316,0,0,0-1.97168.3545,4.08141,4.08141,0,0,0-1.57422,1.09179,5.20049,5.20049,0,0,0-1.04394,1.89258,9.322,9.322,0,0,0-.40235,2.752,8.5637,8.5637,0,0,0,.3291,2.63086,4.917,4.917,0,0,0,.9336,1.76368,3.52476,3.52476,0,0,0,1.374.99511A4.36449,4.36449,0,0,0,360.12605,71.971Z" transform="translate(-24.55765 -8.1784)"/><path class="cls-1" d="M369.30671,73.19166v-1.001l2.25781-.15918V60.78932L369.502,60.387v-.98926l3.332-.36621h.06055l.42774.36621V72.0315l2.25781.15918v1.001Zm2.709-16.834a1.02883,1.02883,0,0,1-.85351-.38378,1.45322,1.45322,0,0,1-.30567-.93457,2.04142,2.04142,0,0,1,.07911-.56739,1.52849,1.52849,0,0,1,.24414-.49414,1.16633,1.16633,0,0,1,.42187-.34765,1.311,1.311,0,0,1,.59766-.12793h.01172a1.08872,1.08872,0,0,1,.51367.11523,1.20378,1.20378,0,0,1,.37207.30566,1.27089,1.27089,0,0,1,.22559.42676,1.63369,1.63369,0,0,1,.07324.48242,2.01513,2.01513,0,0,1-.085.58594,1.46343,1.46343,0,0,1-.251.48828,1.17061,1.17061,0,0,1-.4209.33008,1.41181,1.41181,0,0,1-.61035.12109Z" transform="translate(-24.55765 -8.1784)"/><path class="cls-1" d="M377.74128,66.429a8.58649,8.58649,0,0,1,.43945-2.81933,7.14751,7.14751,0,0,1,1.33008-2.39258,6.48022,6.48022,0,0,1,2.17285-1.66016,7.1867,7.1867,0,0,1,3.99121-.54394c.3418.05371.666.11621.97071.18945q.45849.10986.83008.23828a6.19743,6.19743,0,0,1,.60449.23731l-.09766,3.35742h-1.11035l-.47656-2.31934a2.25906,2.25906,0,0,0-.87891-.501,4.30889,4.30889,0,0,0-1.37891-.19532,4.16127,4.16127,0,0,0-1.81933.39746,4.09877,4.09877,0,0,0-1.42871,1.13477,5.4661,5.4661,0,0,0-.9336,1.78223,7.6235,7.6235,0,0,0-.33593,2.33789,10.00311,10.00311,0,0,0,.34179,2.85058,6.05926,6.05926,0,0,0,.97657,2.02051,4.03692,4.03692,0,0,0,1.47754,1.208,4.26827,4.26827,0,0,0,1.84277.40332,6.22134,6.22134,0,0,0,1.13574-.10449,7.64576,7.64576,0,0,0,1.05566-.26856,7.41939,7.41939,0,0,0,.91016-.36621,4.59081,4.59081,0,0,0,.68359-.39648l.35352.68359a4.4844,4.4844,0,0,1-.86035.67774,7.32418,7.32418,0,0,1-1.123.56738,7.62972,7.62972,0,0,1-1.25781.38476,6.11452,6.11452,0,0,1-1.27539.14063,6.02468,6.02468,0,0,1-2.64258-.54981,5.51751,5.51751,0,0,1-1.917-1.501,6.57522,6.57522,0,0,1-1.17188-2.24024A9.55984,9.55984,0,0,1,377.74128,66.429Z" transform="translate(-24.55765 -8.1784)"/><path class="cls-1" d="M390.38776,73.19166v-1.001l2.25782-.15918V60.78932l-2.0625-.40235v-.98926l3.332-.36621h.06055l.42773.36621V72.0315l2.25781.15918v1.001Zm2.709-16.834a1.02885,1.02885,0,0,1-.85352-.38378,1.45322,1.45322,0,0,1-.30566-.93457,2.04178,2.04178,0,0,1,.0791-.56739,1.5289,1.5289,0,0,1,.24414-.49414,1.16628,1.16628,0,0,1,.42188-.34765,1.311,1.311,0,0,1,.59765-.12793h.01172a1.08869,1.08869,0,0,1,.51367.11523,1.20366,1.20366,0,0,1,.37207.30566,1.27071,1.27071,0,0,1,.22559.42676,1.63337,1.63337,0,0,1,.07324.48242,2.01513,2.01513,0,0,1-.085.58594,1.46325,1.46325,0,0,1-.251.48828,1.17057,1.17057,0,0,1-.42089.33008,1.41186,1.41186,0,0,1-.61036.12109Z" transform="translate(-24.55765 -8.1784)"/><path class="cls-1" d="M398.84675,73.19166v-1.001l1.709-.1709V60.78932l-2.01367-.40235v-.98926l3.07617-.36621h.06055l.43945.36621v1.15918l-.02343.64746a7.89523,7.89523,0,0,1,1.02539-.74511,11.67976,11.67976,0,0,1,1.34179-.71973,9.88313,9.88313,0,0,1,1.502-.543,5.64144,5.64144,0,0,1,1.48925-.21387,4.69386,4.69386,0,0,1,1.9961.36622,2.76082,2.76082,0,0,1,1.21387,1.09863,4.97227,4.97227,0,0,1,.60449,1.83691,17.76347,17.76347,0,0,1,.165,2.59473V72.0315l1.90429.15918v1.001h-5.41992v-1.001l1.75781-.15918V64.87916a16.31747,16.31747,0,0,0-.10351-1.96,3.668,3.668,0,0,0-.42188-1.38574,2.00112,2.00112,0,0,0-.89648-.82325,3.60407,3.60407,0,0,0-1.53223-.27441,4.30717,4.30717,0,0,0-1.166.16992,8.33028,8.33028,0,0,0-1.19043.43945,10.80393,10.80393,0,0,0-1.11621.59278,9.5353,9.5353,0,0,0-.93457.64062v9.74121l1.85546.1709v1.001Z" transform="translate(-24.55765 -8.1784)"/><path class="cls-1" d="M421.39362,73.47291a5.874,5.874,0,0,1-2.57031-.53711,5.20907,5.20907,0,0,1-1.873-1.50781,6.72152,6.72152,0,0,1-1.1416-2.30762,10.62084,10.62084,0,0,1-.38476-2.94824,8.46953,8.46953,0,0,1,.48242-2.92285,7.02679,7.02679,0,0,1,1.33691-2.28907,5.96844,5.96844,0,0,1,4.52832-2.02636,4.5477,4.5477,0,0,1,3.41211,1.26953,5.31458,5.31458,0,0,1,1.31153,3.68652q0,.6958-.01758,1.208a4.41974,4.41974,0,0,1-.11621.9043h-9.05762v.207a1.728,1.728,0,0,0,.01172.207,8.35065,8.35065,0,0,0,.42187,2.55762,5.63217,5.63217,0,0,0,1.00684,1.81933,3.96,3.96,0,0,0,1.44043,1.08008,4.34,4.34,0,0,0,1.74609.35352,5.81368,5.81368,0,0,0,1.1045-.10938,7.875,7.875,0,0,0,1.09277-.293,6.68294,6.68294,0,0,0,.97656-.42773,3.70046,3.70046,0,0,0,.74414-.51172l.36621.83008a4.69334,4.69334,0,0,1-.90332.68945,7.0569,7.0569,0,0,1-1.17773.56152,8.46444,8.46444,0,0,1-1.34277.37207A7.40915,7.40915,0,0,1,421.39362,73.47291ZM421.296,60.179a4.32718,4.32718,0,0,0-1.49024.25,3.02186,3.02186,0,0,0-1.20214.81836,4.39339,4.39339,0,0,0-.84864,1.46485,7.97194,7.97194,0,0,0-.41406,2.20312h7.17773c.01563-.1875.03028-.376.042-.56738q.019-.28712.01855-.56836a5.25927,5.25927,0,0,0-.18945-1.45215,3.02979,3.02979,0,0,0-.5918-1.13574,2.755,2.755,0,0,0-1.01953-.74414A3.70567,3.70567,0,0,0,421.296,60.179Z" transform="translate(-24.55765 -8.1784)"/><path class="cls-2" d="M67.07728,8.1784A42.5196,42.5196,0,1,0,109.597,50.69806,42.59993,42.59993,0,0,0,67.07728,8.1784Zm0,81.825A39.30532,39.30532,0,1,1,106.3826,50.69806,39.3838,39.3838,0,0,1,67.07728,90.00337Z" transform="translate(-24.55765 -8.1784)"/><path class="cls-2" d="M67.064,18.50157A32.18309,32.18309,0,1,0,99.247,50.68466,32.24569,32.24569,0,0,0,67.064,18.50157ZM91.52965,35.45333h-9.261v-9.251A29.10593,29.10593,0,0,1,91.52965,35.45333ZM51.83266,26.219v9.23432H42.59834A29.10622,29.10622,0,0,1,51.83266,26.219Zm-9.24273,39.6836h9.24273V75.1504A29.106,29.106,0,0,1,42.58993,65.90261ZM56.14062,77.36466V61.56807H40.36769a28.75525,28.75525,0,0,1,.00543-21.78h15.7675V24.00475a28.755,28.755,0,0,1,21.82006-.01094V39.78807h15.7942a28.75538,28.75538,0,0,1,.00543,21.78H77.96068V77.3756a28.755,28.755,0,0,1-21.82006-.01094Zm26.128-2.19756V65.90261h9.26944A29.10589,29.10589,0,0,1,82.26862,75.1671Z" transform="translate(-24.55765 -8.1784)"/><path class="cls-3" d="M51.15249,53.67214c-.1601-.36-.53865-1.18561-.89872-1.91918l-.00475-.00018c-.21341-.44086-.43646-.907-.67036-1.37485-.70688-1.44049-1.40044-2.82754-1.53377-3.0676-.60023-1.00028-1.4405-2.36075-2.76089-2.36075a1.65916,1.65916,0,0,0-1.85387,1.85388,9.29956,9.29956,0,0,1-1.09372,3.57447v.01331l-.70685,1.54715h.00307l-.25643.54686a8.67045,8.67045,0,0,1-.88027,1.627c-.44011.547-1.26711.33358-1.26711,1.05374,0,.49351.20008.92043,2.374.92043.61353,0,2.254-.02678,2.254-.947,0-.80029-.97361-.40014-.97361-.987,0-.74693.4802-.7869,1.267-.7869,2.45409,0,2.84094.06657,2.84094.74674,0,.53366-.93361.26684-.93361,1.00038,0,.947,1.307.97379,3.49434.97379.76022,0,2.9209.04,2.9209-1.08053C52.47287,54.12584,51.65927,54.83261,51.15249,53.67214Zm-6.29524-4.4146c.3334,0,.58683.56016.73354.8003.04.06666.09335.17341.17341.32009h.00249a4.612,4.612,0,0,1,.38428.92025c0,.22675-.45353.20008-.61354.20008h-1.147c-.1601,0-.54687.04-.54687-.21339a6.13456,6.13456,0,0,1,.31742-.93249l.00126-.00323c.1144-.295.22251-.56567.25393-.65774C44.532,49.45988,44.681,49.25754,44.85725,49.25754Z" transform="translate(-24.55765 -8.1784)"/><path class="cls-3" d="M51.6326,50.52465a5.756,5.756,0,0,0,5.82849,5.60176c1.8005,0,2.86754-.89364,3.38763-.89364.76023,0,1.46719-1.40054,1.46719-2.08073,0-.37337-.21327-.89364-.66689-.89364-.46681,0-.76023,1.05374-2.69414,1.05374-2.134,0-3.33435-1.92062-3.33435-4.17462a1.78078,1.78078,0,0,1,1.65379-1.94722c2.72082,0,2.32094,2.70745,3.8945,2.70745a1.45513,1.45513,0,0,0,1.41383-1.60052c0-1.69376-.827-2.65407-1.46711-2.65407-.25343,0-.34677.10665-.68008.10665a9.78246,9.78246,0,0,0-2.85433-.74686C54.58018,45.003,51.6326,47.39038,51.6326,50.52465Z" transform="translate(-24.55765 -8.1784)"/><path class="cls-3" d="M71.892,45.21633c-.62663,0-1.90722-.16-1.90722.77362,0,1.08033,1.16048-.12,1.26721,2.21394a27.67289,27.67289,0,0,1-.05355,5.255c-.10655,1.61381-1.13351.94683-1.13351,1.78711,0,.20007.01337.6536,1.01357.6536h6.26855a15.15324,15.15324,0,0,1,1.94739.18687c.61343,0,1.44033-1.88064,1.44033-2.921,0-.42692-.24005-.97361-.73356-.97361-1.25382,0-.36,2.14729-3.49445,2.14729-1.60041,0-1.74712.10673-1.74712-2.1073,0-.4935-.0134-1.067.62682-1.067,1.53385,0,.58684,1.60041,1.53385,1.60041.92023,0,1.027-1.84056,1.027-2.45408,0-.60012-.06674-2.32067-.947-2.32067-1.08016,0-.21345,1.69385-1.37356,1.69385-.93382,0-.9738-.04-.9738-.92024,0-1.74722-.17329-2.054,1.52046-2.054,2.89424,0,1.92063,1.45379,3.12108,1.45379.6,0,.80012-.58685.80012-1.09363,0-.66689-.37338-2.16067-1.24044-2.16067a7.7683,7.7683,0,0,1-2.574.30672Z" transform="translate(-24.55765 -8.1784)"/><path class="cls-3" d="M85.96316,53.59236c.92022,2.06715,1.04017,2.02715,1.28041,2.06715.49348.05336,1.04017-1.68038,1.37356-2.38734.36019-.77353.85367-2.10731,1.32039-2.10731.53347,0,.24,2.614.17349,2.88084-.10673.48009-.78692.57345-.78692,1.10691,0,.98717,2.08071.93382,2.70753.93382.66679,0,2.76073.04,2.76073-1.00038,0-.68037-.92025-.44013-.96022-1.54724-.06676-1.41373-.16011-3.09421-.16011-3.321a18.43248,18.43248,0,0,1,.24024-2.92091c.14653-.52008.82688-.64019.82688-1.24034,0-.96031-1.52062-1.01366-2.18742-1.01366-2.014,0-2.02717.45351-2.80089,1.89393-.56024,1.00029-1.17367,2.85424-1.65378,2.7475-.6668-.1601-1.61381-2.65416-2.14728-3.5611-.45351-.77353-.42693-1.08033-2.214-1.08033-1.21385,0-2.64079.21346-2.64079,1.08033,0,.62691.88025.73354,1.027,1.05366a4.03521,4.03521,0,0,1,.22668,1.74721,47.19279,47.19279,0,0,1-.25345,4.90809c-.12,1.24043-1.04017.53366-1.04017,1.40054,0,.8003,1.38714.85366,1.9206.85366.60006,0,2.22726-.04016,2.22726-.92042,0-.8269-.97362-.05337-.97362-1.69378,0-.49348-.16008-2.50745.32-2.50745.26682,0,.44011.45344.53364.6535Z" transform="translate(-24.55765 -8.1784)"/><path class="cls-4" d="M70.705,36.10693c0,2.62748-5.74827,4.80144-5.76166,7.01548-.02658,2.72083,7.26892,5.80173,5.05489,9.88292-.37337.68037-4.308,3.06753-4.308,4.29475,0,1.8137,1.4273,2.89405,2.70755,3.93457,1.64038,1.347,2.06712,3.961.24,6.22858-4.00122,5.00152-2.334,6.37509,2.44071,10.043-12.69718-3.45446-3.56111-10.49671-3.401-12.76394.13341-1.94721-4.73461-3.94778-4.73461-7.1622,0-3.521,5.05471-4.34792,5.16144-6.10853.18669-3.04094-5.78844-4.53471-5.78844-8.10911,0-3.82785,5.775-5.58837,5.86839-7.37556.08-1.48049-4.20122-3.64117-6.13522-5.335-1.17367-1.04028-2.45382-.58685-3.48106-3.97457-.28-.72016.3468-1.09363.88035-.94692.46682.12,3.96117,1.027,4.0812,3.68114C66.81055,31.1187,70.705,33.11937,70.705,36.10693Z" transform="translate(-24.55765 -8.1784)"/><line class="cls-5" x1="33.57024" y1="16.99186" x2="34.14378" y2="17.67203"/><polyline class="cls-5" points="33.504 16.432 33.557 16.978 32.983 16.832"/><path class="cls-6" d="M66.30377,67.30294,66.037,56.53976a8.2052,8.2052,0,0,1,1.54716-1.4671L67.344,65.66255Z" transform="translate(-24.55765 -8.1784)"/><path class="cls-6" d="M65.97028,53.56559,65.7436,41.64192A20.49947,20.49947,0,0,1,67.931,39.69463l-.29359,12.67069A15.63274,15.63274,0,0,1,65.97028,53.56559Z" transform="translate(-24.55765 -8.1784)"/><path class="cls-6" d="M65.65025,38.5877,65.437,30.105c-2.16087-8.30918,4.628-8.36246,2.70734,0l-.14671,6.442A11.13454,11.13454,0,0,1,65.65025,38.5877Z" transform="translate(-24.55765 -8.1784)"/><path class="cls-6" d="M66.5705,77.98636l-.16-6.25516a5.35453,5.35453,0,0,1,.85357-2.32095L67.064,77.98636Z" transform="translate(-24.55765 -8.1784)"/><path d="M60.85053,84.49441a.37907.37907,0,0,0-.26837.07888,10.369,10.369,0,0,0-.84,1.00905,15.3618,15.3618,0,0,0-1.3676,1.84682c-.14464.30046-.20343.47377-.67232.34985a.9943.9943,0,0,1-.67513-.45225,8.24573,8.24573,0,0,1-.53826-2.2267,8.531,8.531,0,0,0-.31124-1.7303c-.05381-.09225-.139-.11487-.19791-.16316a.30046.30046,0,0,1-.10455-.29471c.08691-.32869.544-.35762,1.39646-.13222.9072.23968,1.32309.44084,1.23934.75741a.28181.28181,0,0,1-.22748.22c-.118.02751-.25074.01195-.28447.13965-.04829.18289.23237.32871.86552.496.46889.12391.7009.13314.75562-.07382.0322-.12192-.0283-.16388-.13432-.231-.13332-.0872-.20117-.15088-.15449-.32744.07562-.28617.43054-.32254,1.08811-.14869.621.16407.89.37862.82084.64038C61.18556,84.45914,61.04482,84.474,60.85053,84.49441Zm-2.87306.54324c.08459.64112.17784.97849.27524,1.00418.09741.02588.30863-.231.69286-.74819Z" transform="translate(-24.55765 -8.1784)"/><path d="M54.29887,85.14239c-.1401.31695-.18524.43452-.07235.61524.09434.14508.17257.24839.09877.41554-.13243.29957-.66.2936-1.49523-.07562-.67973-.30048-.945-.54161-.81514-.8354.10692-.24185.30265-.21725.48735-.24584.1202-.0228.361-.47414.75816-1.37267.3285-.743.29177-1.15867-.29578-1.41825a.84016.84016,0,0,0-.77055-.017c-.23309.138-.43813.57057-.74621,1.26757l-.079.17873c-.20116.455-.31251.72251-.27.84462.04631.14436.31124.2614.21454.48028-.09931.22468-.50534.22433-1.12176-.04811-.52416-.23173-.7396-.49224-.63514-.72831.0891-.20169.23942-.18343.41581-.20875.18478-.0284.24078-.15521.39364-.43888a8.75463,8.75463,0,0,1,1.16978-2.08576,1.93043,1.93043,0,0,1,2.21177-.0966c1.16365.5143,1.5977,1.40179,1.20814,2.28314l-.62889,1.42276Z" transform="translate(-24.55765 -8.1784)"/><path d="M50.79312,80.45961a1.71263,1.71263,0,0,1-.32282,1.07564c-.14345.22955-.29033.28637-.472.17294-.219-.13694-.16092-.36035-.18841-.63749a1.27542,1.27542,0,0,0-.54224-1.0219c-.24576-.1534-.46538-.13478-.55211.00415-.12013.19211.11957.379.46355.839a1.69523,1.69523,0,0,1,.31152,2.02121,1.65737,1.65737,0,0,1-2.38978.31891,4.48555,4.48555,0,0,1-.70442-.59588c-.12817-.08014-.265-.09877-.36118-.15883a.52132.52132,0,0,1-.22911-.4177,1.3304,1.3304,0,0,1,.12465-.86524.45537.45537,0,0,1,.65014-.17293c.203.12662.21708.36578.3126.70007a.9936.9936,0,0,0,.42611.578c.20823.13006.37383.11487.46058-.02406.14345-.22976-.10294-.46527-.4755-.89113-.62574-.71019-.79207-1.25217-.37835-1.91445.51384-.82256,1.59256-.9803,2.69821-.28981A2.66348,2.66348,0,0,1,50.79312,80.45961Z" transform="translate(-24.55765 -8.1784)"/><path d="M41.77273,79.29952a.50114.50114,0,0,1-.17919-.36741,1.58565,1.58565,0,0,1,.32138-1.01631c.24-.292.52118-.34624.76447-.14616a.63461.63461,0,0,1,.172.61415c-.04007.277-.10113.43073.00589.51864.08276.068.17366.03672.28573-.09949l.136-.16553c.312-.37971.70433-.80753,1.11234-1.30375.24-.29214.33566-.458.24793-.669-.07054-.172-.18823-.277-.0322-.46672.232-.2822.6753-.09751,1.43453.52661.657.54.88353.97883.69149,1.21257-.18406.22377-.39418.043-.58783.03056-.17112-.01013-.62239.40992-1.32636,1.26648l-.18.21907c-.296.36018-.42629.53855-.29486.64655.10708.0881.25659.01519.48372-.04289.31884-.08032.51393-.09949.68913.04452a.43936.43936,0,0,1,.01321.63893,1.75706,1.75706,0,0,1-.83566.471.69023.69023,0,0,1-.6196-.02008c-.09252-.076-.145-.20061-.23742-.27658l-1.70344-1.4C42.05122,79.44676,41.90416,79.40751,41.77273,79.29952Z" transform="translate(-24.55765 -8.1784)"/><path d="M41.84762,74.61511c.21825-.19989.33946-.31947.33014-.41355-.015-.16552-.11858-.34388.0625-.50977.2415-.22123.56178-.00217,1.1148.60167.57427.627.7671,1.00545.53031,1.22235-.1533.14038-.2794.06784-.477.00126-.10094-.03546-.54678.27027-1.29453.95516l-.17185.15738c-.57119.52335-.86887.80445-.84842.94792.02741.18832.14925.35872-.02723.52025-.17656.16174-.45659.04251-.831-.36613-.09777-.10692-.23355-.26447-.42068-.4689-.32327-.35276-.61841-.63766-.85232-.89311-.736-.80354-.80689-1.52426-.25417-2.0306a.94914.94914,0,0,1,.907-.24981c.16751.04286.27967.12826.34471.06856.09281-.085-.10438-.263-.13369-.5096a1.237,1.237,0,0,1,.349-.943c.16526-.2111.29142-.34389.25126-.44356-.08817-.22685-.14995-.341-.01067-.46853.21364-.19573.6357-.06134,1.08657.4309a1.29261,1.29261,0,0,1,.39863.77081,1.47222,1.47222,0,0,1-.34624.88081c-.32988.50706-.53774.77442-.28673,1.04832a.5224.5224,0,0,0,.12917.10383Zm-1.11415.8068c-.234-.25543-.46385-.19845-.80284.112-.26936.24676-.30582.46818-.10168.69086.13189.14417.22831.08141.51621-.18235l.209-.1914c.08358-.0765.17646-.16153.2794-.273A.79527.79527,0,0,0,40.73347,75.42191Z" transform="translate(-24.55765 -8.1784)"/><path d="M40.11352,71.83739a.37942.37942,0,0,0-.25345-.11849,10.37463,10.37463,0,0,0-1.29769.19989,15.39974,15.39974,0,0,0-2.24794.47829c-.30736.12954-.46618.22053-.73545-.18289a.99507.99507,0,0,1-.20669-.786A8.25529,8.25529,0,0,1,36.44361,69.403a8.52368,8.52368,0,0,0,.91263-1.50291.58966.58966,0,0,0-.04035-.25326.30017.30017,0,0,1,.11687-.29c.28282-.18887.64464.09207,1.13423.82544.521.78059.69946,1.20679.42711,1.3884a.28176.28176,0,0,1-.3162.0143c-.10655-.05772-.19575-.15721-.30573-.08376-.15712.1051-.04342.40016.32029.94484.26926.4034.43706.564.61515.445.10473-.06984.08719-.14147.05218-.26195-.042-.15377-.05074-.24639.10112-.3477.24621-.16444.53637.04323.914.60909.35665.5342.41626.87321.191,1.02353C40.38784,72.03294,40.27253,71.95082,40.11352,71.83739Zm-2.5129-1.49532c-.36133.53655-.51484.85094-.45884.93471.056.08393.38432.03129,1.01485-.10185Z" transform="translate(-24.55765 -8.1784)"/><path d="M37.67852,66.74812a.36761.36761,0,0,1-.18561.52987c-.24413.1174-.37058-.08738-.54171-.138-.22151-.068-.56776.0984-1.14112.37428l-.51655.24838c-.61878.29775-.968.47268-1.01195.58465-.03511.08685.02215.20588.0123.30158a.29508.29508,0,0,1-.18408.24241c-.27243.131-.6364-.20425-1.02416-1.01033-.3713-.77209-.4178-1.23193-.151-1.36019.23843-.1147.34263.07272.4906.16244a.2584.2584,0,0,0,.2756.03529c.19258-.06476.56993-.23934,1.1489-.51775l.45414-.21852a5.53149,5.53149,0,0,0,.73573-.389c.08556-.06891.07678-.23244-.02975-.45388-.19114-.39743-.36913-.54955-.71863-.53509-.2397.0103-.40433.08974-.49984-.10908a.47483.47483,0,0,1,.27705-.6156,1.949,1.949,0,0,1,1.00781-.12826.46121.46121,0,0,1,.37381.23952,3.397,3.397,0,0,0,.27551.77623Z" transform="translate(-24.55765 -8.1784)"/><path d="M35.33523,63.52394a.37891.37891,0,0,0-.2104-.18415,10.37289,10.37289,0,0,0-1.302-.16842,15.32338,15.32338,0,0,0-2.29183-.16461c-.33123.03888-.509.08212-.65566-.38008a.99474.99474,0,0,1,.01971-.81224,8.255,8.255,0,0,1,1.59137-1.64782,8.52765,8.52765,0,0,0,1.29389-1.19.58852.58852,0,0,0,.03157-.25435.30021.30021,0,0,1,.19284-.2462c.32408-.10293.59353.26756.86009,1.10783.28374.89437.33684,1.35314.02469,1.45228a.28238.28238,0,0,1-.30761-.07417c-.08639-.085-.14436-.20532-.27045-.16535-.18009.057-.15277.3723.04522.9964.14671.46219.26321.66318.46727.59842.12011-.03818.12309-.11181.123-.23735.00226-.1592.01952-.25054.19365-.30591.2821-.08954.50308.19067.70868.83885.19428.61217.15738.95423-.10068,1.03618C35.54452,63.78787,35.45642,63.67717,35.33523,63.52394Zm-1.99831-2.13408c-.496.41517-.73076.67458-.70027.77064s.36044.13658,1.003.1838Z" transform="translate(-24.55765 -8.1784)"/><path d="M34.08646,58.13078a1.7131,1.7131,0,0,1-1.02009.46944c-.26719.04431-.40693-.02823-.442-.23934-.04233-.2547.16372-.35927.35339-.56315a1.2761,1.2761,0,0,0,.40738-1.08286c-.04748-.28581-.20686-.43814-.36841-.41119-.22368.03709-.20514.34046-.32245.90271-.1951.93886-.6261,1.45749-1.30953,1.5711a1.65783,1.65783,0,0,1-1.82057-1.58107A4.49411,4.49411,0,0,1,29.545,56.274c-.02477-.14923-.10138-.2641-.11993-.37589a.522.522,0,0,1,.16172-.44845,1.33033,1.33033,0,0,1,.7313-.47885.45525.45525,0,0,1,.56.373c.03925.23607-.13069.40466-.31819.69773a.99329.99329,0,0,0-.1516.70171c.04035.24239.16136.35637.32291.32958.26718-.04449.28085-.38513.35357-.94627.11849-.93906.41489-1.42243,1.18535-1.55051.95677-.15882,1.78891.5456,2.00264,1.8318A2.66362,2.66362,0,0,1,34.08646,58.13078Z" transform="translate(-24.55765 -8.1784)"/><path d="M32.94191,53.79081c-.11515-.13187-.613-.121-1.54986-.0646-.27034.01629-.497.02372-.68569.03511-.36461.02189-.58359.0539-.66481.1724-.104.15773-.12491.33575-.35122.34931-.31441.019-.49024-.38695-.541-1.22939-.04848-.80482.05979-1.209.38043-1.22823.264-.01591.331.25769.42909.315a9.33794,9.33794,0,0,0,2.25139-.02206c.34579-.0208.55256-.046.63488-.14545.12372-.14634.16225-.34425.3949-.35828.31441-.01889.49658.38659.54766,1.23547.04922.81731-.11964,1.26285-.40882,1.28022C33.12734,54.14554,33.07045,53.93445,32.94191,53.79081Z" transform="translate(-24.55765 -8.1784)"/><path d="M32.89434,51.243a.37844.37844,0,0,0-.13061-.24739,10.37751,10.37751,0,0,0-1.15586-.623,15.36434,15.36434,0,0,0-2.08161-.97387c-.32328-.082-.5048-.10527-.4764-.58946a.99479.99479,0,0,1,.30905-.75154,8.25241,8.25241,0,0,1,2.07574-.96972,8.52145,8.52145,0,0,0,1.63426-.64853c.07986-.0711.085-.15911.12048-.2264a.30052.30052,0,0,1,.26818-.1609c.33945.01989.45867.46219.407,1.34246-.055.93678-.16959,1.38433-.49649,1.36516a.2819.2819,0,0,1-.26076-.17937c-.05039-.11017-.0615-.2433-.19347-.25108-.18868-.011-.27588.293-.31422.94683-.0284.48418.00859.71347.22232.726.12582.00734.155-.06033.19971-.17755.05915-.148.108-.22711.29035-.21644.2955.01736.40168.3579.3618,1.037-.03763.64129-.19438.94757-.46474.93164C32.99537,51.56437,32.95276,51.42933,32.89434,51.243Zm-1.10295-2.70825c-.61163.2102-.92376.36858-.92965.46917s.28774.25659.871.53056Z" transform="translate(-24.55765 -8.1784)"/><path d="M30.391,44.98061c-.11676.03247-.16081.14527-.22007.20967a.32053.32053,0,0,1-.31106.12517c-.33221-.0728-.34488-.456-.1817-1.20025a1.159,1.159,0,0,1,.18443-.48817,5.006,5.006,0,0,1,.86072-.66218c.82681-.56659,1.2795-.867,1.31722-1.03919.02026-.09225-.06739-.16307-.25189-.20351-.21529-.04721-.34309-.08167-.38-.08973-.26447-.058-.3846-.03925-.51873.13125-.081.10473-.12717.19772-.34244.15051-.33829-.07418-.33983-.39038-.19556-1.04849.13486-.61515.27551-.8744.5769-.80827.21527.04722.249.15774.29531.32905.05789.20606.14.24341.5133.36389.39029.1307.85295.22568,1.37177.35881a11.67825,11.67825,0,0,1,1.43409.39816c.251.11948.351.25109.31059.43561-.04983.22757-.49159.53681-1.24476,1.06153-.88344.61858-1.39358.887-1.42866,1.047-.03636.16607.13395.24213.52759.32843a1.67706,1.67706,0,0,0,.724.04911c.13441-.05428.21219-.32092.46447-.26566q.44283.09714.24458,1.00129c-.13758.62736-.34164.91146-.62456.84941-.23987-.05263-.22631-.32036-.32436-.43208a3.14124,3.14124,0,0,0-1.251-.40964A4.32466,4.32466,0,0,0,30.391,44.98061Z" transform="translate(-24.55765 -8.1784)"/><path d="M37.60588,35.24457A2.35276,2.35276,0,0,1,34.41543,36.293a2.48225,2.48225,0,0,1-1.19212-1.41817,2.34738,2.34738,0,0,1,.15321-1.83133,4.43516,4.43516,0,0,1,.75681-.90513c.04079-.07816.04007-.19927.10129-.31649.15449-.296.795-.35231,1.31977-.07834a.63273.63273,0,0,1,.337.86516c-.15449.29586-.36813.26963-.64464.29577a1.1872,1.1872,0,0,0-.9963.5882c-.21283.40757-.05924.80754.43207,1.064a1.7476,1.7476,0,0,0,1.13759.189,1.3462,1.3462,0,0,0,.96674-.66771,1.31952,1.31952,0,0,0,.09831-.95045c-.02351-.10464-.06982-.19274-.02025-.28772.07578-.14508.30183-.18342.53627-.061.40205.20984.62764.67584.49938.9215a.13815.13815,0,0,1-.02886.0417A2.453,2.453,0,0,1,37.60588,35.24457Z" transform="translate(-24.55765 -8.1784)"/><path d="M35.80248,30.07472a2.5292,2.5292,0,0,1,.54976-1.8128,2.49346,2.49346,0,0,1,1.60477-1.036,2.34663,2.34663,0,0,1,1.77263.46592,2.27561,2.27561,0,0,1,.9813,1.65839,2.52792,2.52792,0,0,1-.515,1.7758,2.56311,2.56311,0,0,1-1.148.90135,2.37405,2.37405,0,0,1-3.24544-1.95265Zm2.56128.37836c.5815.14328.99.0747,1.17549-.17982.17809-.24429.077-.544-.29451-.81486a3.07244,3.07244,0,0,0-1.02941-.4697c-.64346-.16518-1.03991-.1345-1.25138.15557-.17439.23924-.083.563.27832.82644A3.3349,3.3349,0,0,0,38.36376,30.45308Z" transform="translate(-24.55765 -8.1784)"/><path d="M41.95317,28.67728a.36721.36721,0,0,1-.561.00994c-.19491-.188-.04684-.3778-.05888-.55572-.013-.23137-.28944-.49812-.74721-.93986l-.41235-.398c-.49395-.47676-.77933-.7434-.89963-.74566-.09353-.00281-.18542.09235-.27849.11622a.29479.29479,0,0,1-.29107-.08837c-.21753-.20994-.02966-.66752.59137-1.31107.59479-.61632,1.00988-.81966,1.22289-.61406.1903.18371.05064.34652.01808.51629a.25787.25787,0,0,0,.06268.27062c.12754.1581.42222.45125.88451.89735l.36252.35a5.57046,5.57046,0,0,0,.62.55464c.09453.05627.24476-.00877.41535-.1855.30617-.31721.38695-.53693.252-.85973-.093-.22107-.2244-.34788-.07135-.50643a.47474.47474,0,0,1,.67339.04594,1.94582,1.94582,0,0,1,.47035.90025.46129.46129,0,0,1-.09479.43371,3.40031,3.40031,0,0,0-.632.52786Z" transform="translate(-24.55765 -8.1784)"/><path d="M44.87154,25.73412a.36723.36723,0,0,1-.558-.05879c-.17041-.21057-.00019-.38062.00968-.55871.01538-.23128-.22621-.52994-.62637-1.02435l-.36054-.44554c-.4318-.53367-.68235-.83324-.80146-.85024-.09253-.01429-.19529.06892-.29063.08132a.29507.29507,0,0,1-.27805-.12337c-.1902-.235.0523-.66617.74749-1.22877.66589-.53872,1.10267-.68978,1.28891-.45967.16635.20569.00787.35014-.04531.51465a.25782.25782,0,0,0,.029.27625c.10718.17257.36379.49964.76792.999l.31685.39166a5.56533,5.56533,0,0,0,.54739.62645c.087.0673.24413.02117.43508-.13323.34262-.27742.44971-.48553.35537-.82238-.06521-.23073-.18008-.37274-.00877-.51139a.47473.47473,0,0,1,.66263.12807,1.94535,1.94535,0,0,1,.35646.95116.46092.46092,0,0,1-.14715.41879,3.40141,3.40141,0,0,0-.69194.44646Z" transform="translate(-24.55765 -8.1784)"/><path d="M48.11951,23.16706c-.28429.17511-.44475.21473-.58349-.01048-.13539-.21988.05644-.35285.09968-.53483.05355-.22533-.23463-.76531-.79949-1.68238-.38306-.622-.62582-.96817-.78511-1.01059s-.392.10825-.54062-.13306c-.11559-.18769-.02405-.39944.29234-.59435.21455-.13206.70831-.39925,1.443-.85176a10.35693,10.35693,0,0,0,1.21935-.85457c.27886-.17178.66554.01176.96611.49973.17835.28962.14669.53845-.041.654-.20912.1288-.37509-.02044-.54633-.07037a.9418.9418,0,0,0-.81693.1629c-.2842.175-.45046.27742-.46863.3922a1.50516,1.50516,0,0,0,.28374.61669c.175.28429.20895.31522.4556.16325.17692-.109.19013-.18371.1298-.35365-.10367-.27641-.18543-.43316.013-.55537.25743-.15855.54794.025.87493.55582.3997.649.46509,1.06731.19689,1.23247-.18233.11225-.25913.01167-.41353-.167-.17953-.20751-.23733-.25326-.43569-.13108-.21988.13541-.19845.21835-.02008.508.19491.31639.31377.50951.43308.547.11061.03546.27269-.04957.54079-.21473a1.13489,1.13489,0,0,0,.63433-.81975c.03664-.28881-.062-.50913.16318-.64781.19844-.12228.387-.06828.53564.173a1.973,1.973,0,0,1,.271.9205c.01745.29252-.01756.43986-.14627.5191a5.30837,5.30837,0,0,0-1.014.49141Z" transform="translate(-24.55765 -8.1784)"/><path d="M50.76843,16.97866a2.48728,2.48728,0,0,1,1.34843-1.27943,3.886,3.886,0,0,1,1.05717-.23544c.1157-.04974.18995-.21192.323-.26918.30074-.12942.78148.14364,1.02786.71628a.56122.56122,0,0,1-.26428.81975.73046.73046,0,0,1-.73193-.12382.99116.99116,0,0,0-.96012-.12844.97465.97465,0,0,0-.41978,1.36651c.448,1.04118,1.26385,1.47163,1.83071,1.22778.19663-.08468.24357-.26249.14154-.49965-.08212-.19086-.178-.14283-.41931-.0664A.35.35,0,0,1,53.264,18.318c-.14436-.33559.19174-.68581,1.01312-1.0391.8156-.35094,1.29019-.36317,1.43446-.02767a.34579.34579,0,0,1-.01521.315c-.10809.16307-.24693.22277-.26338.2641a.38426.38426,0,0,0,.01429.19267,1.62642,1.62642,0,0,1-.05265.7698,2.21927,2.21927,0,0,1-1.3865,1.30259A2.34467,2.34467,0,0,1,50.7223,18.863,2.315,2.315,0,0,1,50.76843,16.97866Z" transform="translate(-24.55765 -8.1784)"/><path d="M56.82179,18.85749c-.32254.08582-.48761.0776-.55563-.178-.06639-.24954.15558-.32154.24937-.48344.11615-.20026-.00443-.80039-.28129-1.84112-.18787-.70595-.32065-1.10728-.46094-1.19375s-.40656-.00915-.47938-.283c-.05663-.213.0919-.38947.451-.485.24348-.06478.79324-.17837,1.627-.40025a10.35421,10.35421,0,0,0,1.41373-.46735c.31648-.08412.63387.20288.78122.7567.08747.32861-.01447.55781-.22748.61442-.23735.06313-.35331-.12753-.50291-.22458a.9418.9418,0,0,0-.82924-.07923c-.32256.08584-.51123.136-.56152.24068a1.50139,1.50139,0,0,0,.09407.67223c.08584.32263.10934.362.3893.28745.20089-.05346.235-.12111.22612-.30129-.01972-.2945-.05283-.46816.17232-.52805.29214-.07778.51754.18163.67791.78411.19591.73645.138,1.15587-.16633,1.23691-.20686.055-.25145-.0635-.34789-.27895-.11223-.25038-.15438-.31079-.37952-.25091-.24954.06639-.25289.15195-.16542.48064.09551.35909.15384.57816.25723.64835.09569.06585.27541.031.57978-.04992a1.13523,1.13523,0,0,0,.84335-.60232c.11813-.2661.08712-.50543.34272-.57345.22514-.05987.39021.04605.4631.31993a1.97406,1.97406,0,0,1-.00543.95949c-.06755.28509-.14345.41608-.28951.455a5.30559,5.30559,0,0,0-1.11254.17865Z" transform="translate(-24.55765 -8.1784)"/><path d="M64.85855,16.47747c.13078-.08412.14236-.51258.12852-1.31859a7.57322,7.57322,0,0,0-.11666-1.66717c-.07744-.10581-.22857-.1032-.28611-.15258a.26291.26291,0,0,1-.12365-.23093c-.00433-.25822.195-.38756.60431-.39462.15114-.00253.48517.01058,1.00779.00171a20.61474,20.61474,0,0,0,2.09509-.13667c.26467-.00452.55591.4566.5655,1.017.00487.28338-.12465.443-.3515.44691-.18251.00317-.28582-.14626-.43326-.29487a1.192,1.192,0,0,0-1.02624-.34154c-.22666.00389-.35194.04388-.37572.12609a3.87018,3.87018,0,0,0-.049.81966c.00218.126.05255.12518.28555.12111.1952-.00335.26358-.05491.29866-.21292.04687-.20867.0502-.3788.30211-.38315.30852-.00524.44023.32636.452,1.019.01249.72415-.12626,1.07926-.44745,1.08478a.27013.27013,0,0,1-.26186-.20968c-.06222-.32652-.06574-.52805-.38684-.52253-.2141.00373-.21962.04785-.21627.243l.00054.03149c.00986.57932.05924.88712.16716.93569.12056.05465.24637.04622.30373.083a.31466.31466,0,0,1,.175.28681c.00643.37782-.407.51086-1.29487.52607-.913.01563-1.34969-.10294-1.356-.47442C64.5143,16.60934,64.69022,16.58113,64.85855,16.47747Z" transform="translate(-24.55765 -8.1784)"/><path d="M70.05915,13.29282a2.52918,2.52918,0,0,1,1.851-.40259,2.49251,2.49251,0,0,1,1.686.8969,2.346,2.346,0,0,1,.45621,1.77489,2.27516,2.27516,0,0,1-.97033,1.66447,2.52745,2.52745,0,0,1-1.80159.415,2.56219,2.56219,0,0,1-1.34607-.56369,2.37379,2.37379,0,0,1,.12481-3.785Zm.9168,2.421c.15794.57751.41679.90087.72939.939.30011.03655.51249-.19763.56821-.65395a3.07488,3.07488,0,0,0-.091-1.12774c-.16915-.64236-.38894-.97359-.7453-1.017-.2938-.03583-.532.20162-.58613.64546A3.33651,3.33651,0,0,0,70.976,15.71381Z" transform="translate(-24.55765 -8.1784)"/><path d="M76.171,17.16353c-.07995.28492-.11974.45036-.06241.52535.1.13278.28222.22964.21564.46608-.08845.3153-.47612.29794-1.26431.07653-.8184-.22985-1.18164-.44964-1.09481-.75888.05625-.2.20152-.205.40449-.25264.10457-.02287.322-.51773.59626-1.49378l.06294-.22431c.20968-.74567.31423-1.14139.22125-1.25255-.12265-.14562-.316-.22613-.25128-.45642s.3656-.27667.89907-.1268c.13949.03907.33775.10139.60439.17628.46075.12943.86163.2159,1.19522.30952,1.04867.29459,1.489.86958,1.28618,1.591a.94863.94863,0,0,1-.63875.69049c-.165.05174-.30518.03853-.32906.12337-.034.1213.22757.16851.38243.36244a1.23738,1.23738,0,0,1,.20062.98517c-.02912.26657-.06639.44575.02043.50942.19447.14617.30717.21058.256.39238-.07834.27886-.50762.38712-1.15035.20667a1.29161,1.29161,0,0,1-.745-.44475,1.47114,1.47114,0,0,1-.17022-.93082c.01284-.60464.04866-.9413-.30917-1.0417a.51633.51633,0,0,0-.16444-.02008Zm.52118-1.27291c.3334.09372.49874-.07568.62321-.51826.09877-.35159.013-.5588-.27805-.64057-.188-.05274-.2368.0512-.34227.42709l-.07669.27281c-.03059.10909-.06476.23038-.09353.37926A.79234.79234,0,0,0,76.69221,15.89062Z" transform="translate(-24.55765 -8.1784)"/><path d="M82.56911,20.95131c-.288-.16879-.39835-.29188-.26447-.52008.13059-.2227.33792-.11568.519-.1629.22414-.05845.56567-.56623,1.11037-1.49514.36958-.63018.56132-1.0069.52407-1.16745-.03745-.16055-.27968-.29522-.13623-.5397.11163-.19013.34137-.20868.66193-.02073.21725.12745.68469.43815,1.42891.87456a10.37035,10.37035,0,0,0,1.32672.67576c.2824.16561.30193.59316.01214,1.08748-.172.29333-.40666.38216-.5968.27062-.21184-.12428-.15793-.34081-.19428-.51538a.94149.94149,0,0,0-.527-.6449c-.288-.16888-.45623-.26756-.56621-.22975-.072.02343-.214.20306-.41137.53981-.16877.2879-.18035.3323.06947.47883.17928.10511.25144.08177.37319-.05127.19555-.22124.29559-.367.49657-.2491.26067.15294.235.49558-.08032,1.03339-.38549.65729-.72431.91128-.99586.752-.18468-.10826-.13187-.22331-.04647-.44347.09893-.25587.11214-.32834-.08883-.44619-.22269-.13061-.28583-.07273-.45786.2206-.188.32047-.30264.516-.27986.63894.02063.11433.17187.21755.44339.37682a1.13467,1.13467,0,0,0,1.02137.17547c.27225-.1031.4204-.2936.64851-.15982.201.11785.24187.3097.0986.55409a1.97284,1.97284,0,0,1-.68561.67115c-.25.15268-.39653.19084-.52714.11441a5.2903,5.2903,0,0,0-.90958-.6648Z" transform="translate(-24.55765 -8.1784)"/><path d="M86.817,22.59641A7.69758,7.69758,0,0,0,88.43534,20.885c.24313-.2975.35383-.44294.28636-.66889-.055-.1914-.12248-.32779.009-.48878.18723-.2292.5237-.13315,1.04073.28925a1.99152,1.99152,0,0,1,.5465.58513,2.71927,2.71927,0,0,1-.08484.80074c-.14672.8563-.30139,1.23437-.1451,1.36191.17547.14345.54451-.14878,1.404-.50373a1.78731,1.78731,0,0,1,.63931-.18514,1.58732,1.58732,0,0,1,.68706.42322c.48283.39464.68543.67413.46618.9423-.13549.16589-.29287.06975-.404.07643-.195.01964-.536.36723-1.07,1.02074a5.42424,5.42424,0,0,0-.90776,1.29977c-.00489.08547.17692.291-.0105.52017-.21924.26827-.57742.08946-1.216-.43272-.63407-.51808-.862-.82644-.63877-1.0995.15938-.1951.33214-.07815.45931-.10439.16662-.03464.3797-.27541.71853-.68985.11542-.14147.13243-.2416.05427-.30537-.117-.0957-.2916.03827-.68326.23879-.85618.43072-1.25851.70388-1.4291.56441-.14147-.11559-.02695-.53438.21021-1.38181.14418-.52479.31313-.80139.1865-.90494-.10238-.08376-.28275.1268-.64545.57064-.23517.28772-.32669.39988-.25182.56685.05863.1374.138.25914.00652.42015-.17944.21942-.4546.10835-.93254-.28231-.46816-.38259-.64164-.63821-.46618-.85276C86.45573,22.43125,86.68114,22.62345,86.817,22.59641Z" transform="translate(-24.55765 -8.1784)"/><path d="M90.93755,27.07784c-.22287-.24837-.29054-.39925-.09372-.5759.19211-.17238.35711-.0074.544.00273.2312.01249.71113-.36732,1.5127-1.08657.54359-.48789.841-.78846.85439-.95272.01321-.16425-.17657-.36631.03455-.55563.1639-.14717.38856-.09488.63677.1817.16823.18751.519.62566,1.09535,1.26785a10.31486,10.31486,0,0,0,1.05827,1.04732c.21853.24376.10708.65694-.31947,1.03973-.2531.227-.50364.24024-.65088.07624-.16391-.1828-.04669-.37274-.02824-.55011a.94171.94171,0,0,0-.3057-.77472c-.22305-.24837-.35348-.39371-.46962-.3911-.0758.00037-.26557.12836-.5561.38912-.24855.223-.27279.26176-.07941.4774.13876.15466.21473.15431.37121.06467.25344-.15132.39309-.25969.54868-.08628.20188.225.07326.54359-.39075.95994-.5673.509-.96728.64788-1.17765.41344-.14292-.15927-.05754-.2528.09062-.4366.172-.21364.20676-.27868.0512-.45206-.17241-.19221-.25019-.15631-.50327.07082-.2766.24818-.44537.3996-.46093.5236-.01519.11515.09732.2595.3077.49387a1.135,1.135,0,0,0,.91952.47793c.2907-.01556.48987-.15187.66661.045.15559.17348.13623.3686-.07489.5579a1.9711,1.9711,0,0,1-.85728.43081c-.28473.06928-.43578.06115-.53674-.05137a5.30468,5.30468,0,0,0-.66444-.91011Z" transform="translate(-24.55765 -8.1784)"/><path d="M95.85259,31.06361c-.246.16472-.38387.26457-.38893.35891-.01013.166.0653.35792-.13874.49458-.27227.18225-.55573-.08266-1.01124-.763-.47305-.70659-.60655-1.10982-.33973-1.28856.17257-.11559.28655-.025.47179.07074.09442.05046.58123-.18461,1.424-.74874l.19337-.12971c.64382-.431.98048-.664.98193-.809.00144-.19039-.09316-.37717.10546-.51032.199-.13313.45786.02705.76628.48763.08051.12039.19086.29657.34517.52686.26628.39772.51484.72387.70767,1.01168.60621.90541.56749,1.62874-.05516,2.04572a.94922.94922,0,0,1-.93436.11016c-.15918-.06783-.25723-.169-.33049-.11985-.10475.07009.06348.27588.05535.5239a1.2376,1.2376,0,0,1-.48752.87962c-.19521.1838-.33992.29594-.31532.4007.05283.23742.09679.35962-.06023.46473-.24078.16127-.63768-.03538-1.00907-.59011a1.29076,1.29076,0,0,1-.27768-.82219,1.47123,1.47123,0,0,1,.47522-.81847c.40251-.45153.64834-.68436.44176-.99314a.52052.52052,0,0,0-.11216-.122Zm1.22306-.62952c.19284.28781.42856.26638.81062.01058.30355-.20325.373-.41652.20478-.66771-.10871-.16227-.21328-.11487-.53781.1024l-.23553.15764c-.09407.06315-.19882.13316-.3173.22776A.78879.78879,0,0,0,97.07565,30.43409Z" transform="translate(-24.55765 -8.1784)"/><path d="M100.48527,33.36213a2.48722,2.48722,0,0,1,1.31929,1.30954,3.88063,3.88063,0,0,1,.267,1.04977c.05335.11414.21762.18352.27875.31476.1384.29676-.12011.78555-.68524,1.049a.56124.56124,0,0,1-.82726-.23961.73051.73051,0,0,1,.10185-.73535.99128.99128,0,0,0,.09968-.96367.97486.97486,0,0,0-1.37864-.3787c-1.02752.479-1.43327,1.30745-1.1726,1.86688.09064.194.26973.23554.50382.12645.18832-.08783.13747-.18217.05372-.42113a.34984.34984,0,0,1,.17548-.44312c.33121-.1544.69121.171,1.0691.98156.37519.80474.40179,1.27879.07075,1.4332a.34632.34632,0,0,1-.31549-.0059c-.16607-.1031-.22994-.24014-.2719-.25533a.38516.38516,0,0,0-.19211.02008,1.62654,1.62654,0,0,1-.77118-.02959,2.2192,2.2192,0,0,1-1.34354-1.34689,2.34482,2.34482,0,0,1,1.13333-3.32167A2.315,2.315,0,0,1,100.48527,33.36213Z" transform="translate(-24.55765 -8.1784)"/><path d="M98.78823,39.46913c-.09551-.31993-.09225-.48525.1612-.56087.24746-.07391.32615.1459.49078.23479.20369.11009.79992-.02839,1.83215-.33638.70008-.20893,1.09733-.35373,1.17965-.49665s-.00291-.40666.26864-.4877c.21129-.06306.392.08023.49819.43632.07219.24142.20224.78764.449,1.61454a10.40231,10.40231,0,0,0,.5096,1.39926c.09371.31386-.1838.63994-.733.80382-.326.09723-.55807.00217-.621-.20912-.07036-.23535.11686-.3569.2093-.5095a.94184.94184,0,0,0,.05446-.83124c-.09551-.31991-.15123-.50706-.25743-.55428a1.50474,1.50474,0,0,0-.66933.11424c-.31982.09553-.35854.12022-.27568.3978.05952.19918.12824.23128.30807.21709.29378-.02858.46635-.06695.53293.15638.08665.28972-.16607.5229-.76359.70118-.73028.218-1.15142.17266-1.24132-.12908-.06133-.20523.0557-.25335.26827-.3562.24711-.11967.30626-.16362.23968-.38693-.074-.24748-.15973-.24821-.48552-.151-.3562.10629-.57345.17114-.64058.2766-.063.09768-.0226.27632.0673.57806a1.135,1.135,0,0,0,.62754.82509c.26936.11016.50778.07191.5834.32543.06676.22333-.03436.39147-.30589.47251a1.97211,1.97211,0,0,1-.95931.02335c-.28709-.05889-.42043-.1309-.46366-.27579a5.29438,5.29438,0,0,0-.21182-1.10675Z" transform="translate(-24.55765 -8.1784)"/><path d="M103.65771,43.18328c.09805-.07144.09949-.19257.13223-.27362a.32081.32081,0,0,1,.24711-.22675c.33666-.04876.48337.30544.59263,1.05953a1.16039,1.16039,0,0,1-.00073.5219,4.99008,4.99008,0,0,1-.57273.92287c-.57453.82136-.89238,1.262-.867,1.43644.01337.09351.12046.12889.30733.10184.21818-.03156.35006-.04433.38733-.04975.26789-.03881.37372-.09868.43922-.30545.03907-.12654.04955-.22992.26773-.26149.34279-.04966.45549.24575.5521.91263.09026.62321.04994.91545-.25543.95968-.21816.03157-.28872-.06-.39236-.20406-.12682-.17248-.21674-.17863-.60837-.16-.41156.0151-.8781.089-1.41049.14706a11.70089,11.70089,0,0,1-1.48265.13215c-.277-.02352-.417-.11144-.4441-.2984-.03329-.23055.27134-.67556.79161-1.43183.60928-.89.99223-1.32092.96853-1.483-.02423-.16823-.21037-.17946-.60927-.12166a1.67933,1.67933,0,0,0-.6952.20886c-.10655.09823-.08556.3751-.34117.41218q-.44853.065-.58142-.85113c-.09207-.63569-.00089-.97342.28564-1.01494.24313-.03529.32454.22023.45569.29033a3.1446,3.1446,0,0,0,1.31533-.057A4.32227,4.32227,0,0,0,103.65771,43.18328Z" transform="translate(-24.55765 -8.1784)"/><path d="M100.59254,51.07641a2.35226,2.35226,0,0,1,2.356-2.39214,2.48171,2.48171,0,0,1,1.70878.71509,2.34674,2.34674,0,0,1,.7019,1.69785,4.42922,4.42922,0,0,1-.25832,1.15089c-.00055.08808.05535.19554.05463.32778-.00182.33375-.54541.67712-1.13733.67367a.63267.63267,0,0,1-.69555-.6147c.002-.33376.20386-.4083.43777-.55808a1.1874,1.1874,0,0,0,.61652-.97884c.00252-.45967-.317-.74485-.87123-.748a1.74774,1.74774,0,0,0-1.09769.35266,1.34528,1.34528,0,0,0-.55355,1.03593,1.31842,1.31842,0,0,0,.34751.88984c.06872.08212.15032.13929.14977.24656-.00108.16355-.1845.301-.449.29957-.45332-.00252-.867-.3135-.8656-.59062a.14189.14189,0,0,1,.0065-.05029A2.45341,2.45341,0,0,1,100.59254,51.07641Z" transform="translate(-24.55765 -8.1784)"/><path d="M102.767,56.769a1.94313,1.94313,0,0,0-.60856-.15051l-.14941-.02134c-.54252-.07762-.8535-.08377-.94322.01157-.11234.1176-.15956.31442-.42131.277-.3743-.05355-.45353-.4783-.333-1.32.11848-.82907.35457-1.23445.66607-1.18977.18722.02658.24313.16824.30826.33666.032.08719.05516.14778.12735.17727a6.34715,6.34715,0,0,0,.95389.18072,2.02184,2.02184,0,0,0,.4658.03492,1.43373,1.43373,0,0,0,.44268-.20406l.89254-.50217c.235-.13189.23067-.27877.30193-.37682a.3459.3459,0,0,1,.33938-.14871c.36795.05246.39453.44449.27423,1.286-.12372.86669-.26736,1.24712-.59768,1.19992-.20588-.02949-.25219-.19519-.33938-.20767a.66213.66213,0,0,0-.2992.0908c-.15051.074-.22885.1326-.2388.20134-.01337.09353.29035.3723.4338.39273.081.01176.2245-.146.41137-.1192.24946.03564.34914.36144.26267.96637-.089.62337-.22431.90305-.51123.86217a.29167.29167,0,0,1-.26356-.29235.69047.69047,0,0,0-.05789-.30717,2.29,2.29,0,0,0-.358-.43289l-.38732-.40538A1.52507,1.52507,0,0,0,102.767,56.769Z" transform="translate(-24.55765 -8.1784)"/><path d="M99.63721,62.05884a7.69674,7.69674,0,0,0,2.085,1.0948c.35222.15358.5219.2207.72126.09479.16931-.10492.28257-.20658.47287-.12356.27134.11813.26989.468.00325,1.07979a1.99632,1.99632,0,0,1-.41534.68471,2.73578,2.73578,0,0,1-.794.13478c-.8638.09027-1.26957.04378-1.35006.22866-.09064.20766.29035.48391.86469,1.2151a1.79068,1.79068,0,0,1,.35113.5655,1.58679,1.58679,0,0,1-.22159.77587c-.24928.57147-.46347.84227-.781.70371-.19626-.08558-.14634-.263-.18289-.36831-.07144-.18235-.49856-.41661-1.2719-.75382A5.42727,5.42727,0,0,0,97.622,66.8686c-.08357.01845-.23228.24893-.50343.1308-.31767-.13839-.24223-.53168.08737-1.28783.32725-.75055.56242-1.0532.88568-.91228.231.10077.16516.29866.22487.41409.07832.15086.36757.29088.85837.50487.16733.0731.26827.06206.30861-.03019.06041-.13876-.11559-.27027-.41463-.59318-.64636-.70786-1.0181-1.021-.93-1.22306.07308-.16733.50725-.1704,1.387-.1715.54415-.00326.8562.08485.92169-.06529.05281-.12121-.19864-.2377-.724-.46692-.34046-.14833-.47324-.20621-.6138-.08881-.11632.09335-.2122.20279-.40268.11974-.25978-.11342-.2274-.40829.01936-.97415.24166-.55409.44083-.79016.69482-.67926C99.69834,61.66628,99.57425,61.93529,99.63721,62.05884Z" transform="translate(-24.55765 -8.1784)"/><path d="M96.43653,67.23638c.17928-.28149.30628-.38732.52933-.24531.218.13876.10346.34208.144.52479.05029.22595.54524.58593,1.45372,1.16428.61613.39238.98571.5977,1.14744.56621s.30535-.26846.5445-.11632c.1858.1185.19593.34878-.00361.66228-.13532.21256-.46292.66824-.92621,1.39618a10.39252,10.39252,0,0,0-.72377,1.30105c-.17584.2764-.60386.28021-1.08723-.0277-.2869-.18251-.367-.42022-.24855-.60618.13189-.20732.34625-.14545.52208-.17511a.94243.94243,0,0,0,.66372-.50326c.17928-.28166.284-.44629.25019-.55754-.02062-.0729-.195-.22107-.52444-.43091-.28147-.17909-.32543-.19228-.481.05229-.11162.17529-.09082.24819.03763.37463.21382.20353.356.3088.23083.50543-.16246.2549-.50381.21674-1.02969-.11812-.64292-.40919-.88442-.75707-.71527-1.02263.115-.1807.22792-.12356.44482-.03038.25219.10818.324.12428.44917-.07237.13877-.21779.08323-.28292-.20369-.46563-.3135-.19954-.50471-.32128-.62845-.303-.11487.01646-.22359.16371-.39273.42927a1.13564,1.13564,0,0,0-.21254,1.0145c.093.27569.278.43091.136.654-.12517.19663-.31838.23027-.55734.07813a1.97281,1.97281,0,0,1-.64583-.70966c-.14345-.25561-.17618-.40342-.095-.53077a5.31829,5.31829,0,0,0,.69756-.88477Z" transform="translate(-24.55765 -8.1784)"/><path d="M94.6943,71.17547c.00126.13387-.07869.256-.06423.32634A14.00165,14.00165,0,0,0,96.576,73.30466c.21508.18451.22394.18379.39671.108a.3403.3403,0,0,1,.41389.04c.27243.23371.12483.46382-.23626.88423-.11468.13387-.23426.26358-.345.39256-.11486.13367-.38893.46292-.8399.98843a2.08809,2.08809,0,0,1-3.24552.24332,2.12507,2.12507,0,0,1-.18273-3.32622c.18452-.2149.445-.48952.771-.84027.14347-.16717.26719-.30174.36163-.41156l.29107-.33919c.23642-.237.41388-.30861.60529-.14453A.34035.34035,0,0,1,94.6943,71.17547ZM93.772,73.01414c-.22756-.17024-.3142-.195-.43722-.05155-.42241.49222-.28329,1.02624.41914,1.62918.82183.70533,1.43654.80121,1.89584.26591.06963-.081.09081-.1543.06639-.18361-.02534-.03816-.26919-.24728-.72307-.63693C94.286,73.43021,93.87157,73.0912,93.772,73.01414Z" transform="translate(-24.55765 -8.1784)"/><path d="M91.13725,75.44c-.02949.17257.29378.55139.92929,1.24151.18342.19917.33232.37031.46039.50924.24729.26864.41065.41787.55373.40611.188-.019.339-.11541.49259.05138.21329.23174.00977.62447-.61091,1.19592-.59279.546-.97431.71765-1.19175.48139-.17927-.19465-.00959-.41952-.02732-.53149a9.3264,9.3264,0,0,0-1.43942-1.73049c-.23463-.25488-.38478-.39924-.51377-.4-.19156-.00363-.3692.09153-.52714-.07978-.21327-.23155-.01428-.6288.61128-1.2048.602-.55463,1.05391-.70532,1.2502-.49222C91.295,75.07206,91.16728,75.24953,91.13725,75.44Z" transform="translate(-24.55765 -8.1784)"/><path d="M86.791,77.833a2.35287,2.35287,0,0,1,3.32458.4725,2.48285,2.48285,0,0,1,.44086,1.79923,2.34677,2.34677,0,0,1-.9481,1.57383,4.42784,4.42784,0,0,1-1.07926.4765c-.07109.05209-.12409.16082-.231.239-.26936.19682-.86851-.036-1.21784-.51412a.63249.63249,0,0,1,.081-.92475c.26936-.19682.44936-.07871.70877.02025a1.18729,1.18729,0,0,0,1.15361-.08628.74986.74986,0,0,0,.08356-1.14509,1.74612,1.74612,0,0,0-.93616-.67313,1.34589,1.34589,0,0,0-1.16227.17058,1.32025,1.32025,0,0,0-.50888.80844c-.02514.10419-.0226.20387-.10907.267-.13225.09661-.35187.03077-.50779-.1827-.26756-.36613-.26357-.88388-.04-1.04723a.14045.14045,0,0,1,.04451-.0246A2.45178,2.45178,0,0,1,86.791,77.833Z" transform="translate(-24.55765 -8.1784)"/><path d="M84.96313,80.20944c-.06746.16153.16228.6033.62664,1.41879.13406.23536.24077.43542.33414.59968.1807.31748.30626.49965.44845.52027.18741.02371.35618-.03635.46834.16082.15575.2737-.13061.61073-.864,1.02824-.70044.3987-1.11073.4803-1.26974.201-.131-.22973.085-.41062.093-.52388a9.331,9.331,0,0,0-1.014-2.01c-.17131-.301-.28508-.47541-.41081-.50525-.186-.04649-.38043.00652-.49566-.19609-.15594-.27353.12753-.61616.86631-1.03693.7115-.405,1.18562-.45025,1.32908-.19843C85.19939,79.88653,85.03514,80.0307,84.96313,80.20944Z" transform="translate(-24.55765 -8.1784)"/><path d="M83.606,84.22233c.09351.07708.21129.04813.298.0597a.32043.32043,0,0,1,.28129.18271c.13133.31387-.17511.54452-.87809.83866a1.15905,1.15905,0,0,1-.5058.12952,5.00349,5.00349,0,0,1-1.03691-.324c-.93887-.35149-1.445-.54939-1.60767-.48138-.08719.03654-.095.14889-.02188.32328.085.20332.13025.328.1449.3627.10457.25.18885.33755.40558.34913.13223.00615.235-.00939.32.19393.13387.31965-.12428.50272-.746.76286-.58107.24313-.87412.27695-.99334-.00778-.085-.20351-.01391-.29452.09967-.43091.13551-.16607.11886-.25471.00308-.62934-.1174-.39492-.30554-.82816-.49476-1.32926a11.71065,11.71065,0,0,1-.49819-1.40305c-.04631-.27407.00361-.43164.178-.50473.2151-.0899.72216.09408,1.5845.409a6.69477,6.69477,0,0,0,1.67821.568c.157-.06567.12139-.24875-.03419-.62067a1.67964,1.67964,0,0,0-.37608-.62121c-.12176-.07869-.3846.01085-.48428-.22759q-.175-.41812.67928-.7757c.59244-.24781.94249-.244,1.0541.02316.095.22668-.13206.36959-.16733.514a3.14622,3.14622,0,0,0,.3837,1.2596A4.3221,4.3221,0,0,0,83.606,84.22233Z" transform="translate(-24.55765 -8.1784)"/><path d="M77.23763,82.80445c.32344-.0825.4886-.07272.55391.18362.064.25016-.15866.32019-.254.481-.11832.19917-.00361.80049.263,1.8441.18091.70805.30971,1.11054.44918,1.19846s.40649.01321.47668.28783c.05463.21382-.0957.38856-.45588.48064-.244.06241-.79506.17059-1.63116.38423a10.36936,10.36936,0,0,0-1.41846.45351c-.3173.081-.63206-.20912-.77388-.76447-.0843-.3296.0199-.55771.23354-.61236.23807-.061.352.131.50091.22976a.94216.94216,0,0,0,.82834.08736c.32364-.08266.51268-.13115.564-.23535a1.504,1.504,0,0,0-.08736-.67313c-.08267-.32343-.10582-.36306-.38658-.29142-.20135.05136-.23625.119-.22921.2992.017.2947.04831.46872-.17746.52642-.29287.07473-.51574-.18687-.67023-.79108-.18869-.73842-.12663-1.1572.17854-1.23517.2075-.0532.25091.06584.34516.28238.10981.25145.15123.31241.37719.25471.25017-.064.25433-.1496.17-.4792-.0919-.36-.14816-.5796-.25072-.65088-.09516-.06693-.27514-.03383-.58033.04414a1.13487,1.13487,0,0,0-.8495.59407c-.12085.265-.09208.50452-.34842.57-.22575.05788-.38966-.04974-.45984-.32434A1.97157,1.97157,0,0,1,73.62,83.989c.07036-.28455.14744-.415.294-.45225a5.31227,5.31227,0,0,0,1.11453-.16788Z" transform="translate(-24.55765 -8.1784)"/><path d="M67.10922,50.70211" transform="translate(-24.55765 -8.1784)"/></svg>