<?xml version="1.0" encoding="UTF-8"?>
<svg id="Layer_1" xmlns="http://www.w3.org/2000/svg" viewBox="0 0 394.19 130">
  <defs>
    <style>.cls-1{fill:#3d5629;}.cls-2{fill:#f36c25;fill-rule:evenodd;}</style>
  </defs>
  <path class="cls-1" d="m28.09,124.23c-.76.16-1.48.33-2.15.5l-.8,5.27h29.13l-1.63-10.99-24.54,5.22Z" />
  <polygon class="cls-1" points="31.1 109.12 34.26 108.45 50.55 104.99 48.13 88.76 30.86 92.43 28.22 109.74 31.1 109.12" />
  <polygon class="cls-1" points="46.05 74.75 43.85 59.97 35.75 60.39 33.14 77.5 46.05 74.75" />
  <path class="cls-1" d="m4.77,58.86c-2.17-4.02-3.62-8.38-4.33-12.9l24.9-3.8c.26,1.66.79,3.26,1.58,4.73l-22.16,11.95v.02Z" />
  <path class="cls-1" d="m77.13,54.42l-23.46-9.15c.61-1.56.94-3.21,1-4.92v-.05s25.17.76,25.17.76v.05c-.14,4.59-1.05,9.07-2.71,13.32Z" />
  <path class="cls-1" d="m25.18,39.5L0,38.75v-.03c.15-4.57,1.06-9.04,2.68-13.28l23.47,9.12c-.61,1.56-.94,3.21-.99,4.91v.03Z" />
  <path class="cls-1" d="m54.49,37.64c-.26-1.66-.79-3.26-1.58-4.73l22.15-11.98c2.18,4.02,3.65,8.37,4.34,12.89l-24.9,3.83h-.02Z" />
  <path class="cls-1" d="m27.36,32.17L5.93,18.96c2.4-3.89,5.42-7.3,8.99-10.16l15.77,19.63c-1.33,1.05-2.45,2.34-3.34,3.77v-.02Z" />
  <path class="cls-1" d="m51.43,30.68c-1.05-1.33-2.34-2.45-3.77-3.34l13.23-21.43c3.89,2.4,7.3,5.42,10.16,8.98l-19.63,15.77v.02Z" />
  <path class="cls-1" d="m32.93,26.93L20.96,4.77c4.02-2.17,8.38-3.64,12.9-4.33l3.81,24.88c-1.66.26-3.26.79-4.73,1.58v.02Z" />
  <path class="cls-1" d="m45.26,26.15c-1.56-.6-3.19-.93-4.89-.99h-.05S41.09,0,41.09,0h.05c4.57.14,9.03,1.04,13.27,2.68l-9.12,23.47h-.02Z" />
  <path class="cls-1" d="m111.61,90.16l8.92-26.27h.34l8.92,26.27h-18.19Zm3.03-36.62l-21.05,58.08v.84h10.43l4.63-13.63h24.06l4.63,13.63h10.77v-.84l-21.13-58.08h-12.37.02Z" />
  <path class="cls-1" d="m181.38,61.87c9.17,0,13.8,5.38,14.57,12.47h10.09c-1.09-12.47-10.09-21.55-24.65-21.55-17.77,0-27.11,12.62-27.11,30.31s9.26,30.13,27.11,30.13c14.49,0,23.22-8.85,24.65-20.95h-10.01c-1.26,7-5.8,11.95-14.64,11.95-12.05,0-17.01-9.26-17.01-21.13s4.97-21.2,17.01-21.2" />
  <path class="cls-1" d="m243.34,81.33h-14.49v-18.86h14.49c6.48,0,9.68,3.87,9.68,9.34s-3.12,9.51-9.68,9.51Zm19.87-9.59c0-10.01-7.07-18.19-19.28-18.19h-24.92v58.93h9.86v-22.21h11.78l14.22,22.21h11.19v-.84l-15.06-22.56c7.42-2.44,12.2-8.75,12.2-17.35Z" />
  <path class="cls-1" d="m301.42,81.33h-14.49v-18.86h14.49c6.48,0,9.68,3.87,9.68,9.34s-3.12,9.51-9.68,9.51Zm19.87-9.59c0-10.01-7.07-18.19-19.28-18.19h-24.92v58.93h9.86v-22.21h11.78l14.22,22.21h11.19v-.84l-15.06-22.56c7.42-2.44,12.2-8.75,12.2-17.35Z" />
  <path class="cls-1" d="m383.15,53.53l-18.44,32.16h-.33l-18.44-32.16h-11.19v58.93h9.51v-43.53h.33l19.45,33.58h.84l19.45-33.33h.34v43.26h9.51v-58.93h-11.04v.02Z" />
  <path class="cls-2" d="m59.51,70.06c-1.6-4.91-6.61-8.22-12.45-8.22l1.34,9.14s.47-.11,1.07.28c.79.53.9,1.38.98,2.29.16,1.63-1.2,3.22-3.09,3.62l-22,4.68c-6.82,1.45-11.67,7.4-11.02,13.54.37,3.48,2.24,6.5,5.27,8.47,2.15,1.4,5.81,2.13,6.42,2.05,0,0,1.57-8.84,1.29-8.84-.84,0-1.63-.26-2.27-.76-.82-.65-1.24-1.6-1.15-2.61.12-1.45,1.37-2.7,3.03-3.06l22.46-4.77c3.64-.78,6.82-2.94,8.75-5.92,1.97-3.05,2.46-6.56,1.38-9.87h-.02Z" />
  <path class="cls-2" d="m50.64,48.73c-.65-3.09-6.64-3.9-9.72-3.9-1.13,0-2.18.09-3,.26-1.91.4-3.7,1.48-4.94,2.94l-3.08.67c-3.62.78-6.82,2.92-8.75,5.91-1.96,3.05-2.46,6.54-1.38,9.87,1.57,4.91,5.55,8.15,11.39,8.15.28-1.93,1.35-9.06,1.35-9.06-.28.06-.51.12-.79.12-.75,0-.93-.03-1.52-.42-.79-.51-1.29-1.34-1.38-2.22-.16-1.63,1.2-3.23,3.09-3.64l3.2-.7c1.09.47,2.3.72,3.53.72.62,0,1.24-.06,1.83-.19,1.9-.4,4.55-1.65,6.59-3.09,1.87-1.32,3.98-3.33,3.54-5.39l.03-.02Z" />
  <path class="cls-1" d="m17.32,65.27c-.74-2.28-.85-4.63-.41-6.91l-8.15,6.54c2.86,3.57,6.28,6.59,10.16,8.99l1.78-2.87c-1.5-1.55-2.66-3.48-3.38-5.75Z" />
  <path class="cls-1" d="m53.18,48.11s0,.03.01.04c.31,1.46.1,3.52-2.01,5.84l13.7,17.07c3.58-2.85,6.59-6.28,8.99-10.15l-20.7-12.8Z" />
  <path class="cls-2" d="m67.99,99.41c-1.6-4.91-6.61-8.22-12.45-8.22-1.06,0-3.06.31-4.1.53l1.29,8.78c.3-.06,2.41-.42,2.72-.42,1.35,0,2.55.64,3.11,1.66.5.89.51,1.93.02,2.86-.5.95-1.45,1.65-2.56,1.88l-24.34,5.18-5.98,1.27c-2.98.64-5.69,2.22-7.63,4.48-.31.37-.56.67-.75.95-.59.81-1.07,1.69-1.46,2.66-.14.34-.26.72-.37,1.13-.26.95-.42,1.93-.44,2.91l-.03,1.34,1.15-.7c1.85-1.12,5.33-2.74,11.41-4.04l30.31-6.45c3.64-.78,6.82-2.94,8.75-5.92,1.97-3.05,2.46-6.56,1.38-9.87h-.02Z" />
</svg>