<?xml version="1.0" encoding="UTF-8"?> <svg xmlns="http://www.w3.org/2000/svg" xmlns:xlink="http://www.w3.org/1999/xlink" id="Layer_1" viewBox="0 0 95.13 32.85"><defs><linearGradient id="linear-gradient" x1="0" y1="16.37" x2="21.59" y2="16.37" gradientTransform="translate(0 31.73) scale(1 -1)" gradientUnits="userSpaceOnUse"><stop offset="0" stop-color="#ee8166"></stop><stop offset="1" stop-color="#e1516a"></stop></linearGradient><linearGradient id="linear-gradient-2" x1="2.36" y1="7.23" x2="21.59" y2="7.23" gradientTransform="translate(0 31.73) scale(1 -1)" gradientUnits="userSpaceOnUse"><stop offset="0" stop-color="#995098"></stop><stop offset=".52" stop-color="#7b4e99"></stop><stop offset="1" stop-color="#614d9a"></stop></linearGradient></defs><g id="Layer_2"><g id="Full_Colour_with_cutouts"><path d="M50.4,23.49c-.2,0-.38.16-.42.36-.03.2.09.35.29.35s.38-.16.41-.35c.03-.2-.09-.36-.29-.36ZM35.16,24.52h-.09c-.48,0-.75.16-.84.67l-.19,1.1c-.1.56.14.8.69.8.22,0,.44-.04.65-.11l.09-.53h-.02c-.14.1-.38.16-.54.16-.25,0-.39-.08-.35-.35l.05-.26h1l.14-.81c.09-.5-.12-.67-.58-.67h0ZM35.25,25.25l-.06.32h-.52l.06-.32c.03-.19.11-.29.31-.29s.24.1.21.29h0ZM46.99,24.52h-.09c-.48,0-.75.16-.84.67l-.19,1.1c-.1.56.14.8.69.8.22,0,.44-.04.65-.11l.09-.53h-.02c-.14.1-.38.16-.54.16-.25,0-.39-.08-.34-.35l.05-.26h1l.14-.81c.09-.5-.12-.67-.58-.67h0ZM47.09,25.25l-.06.32h-.52l.06-.32c.03-.19.11-.29.31-.29s.24.1.21.29h0ZM49.51,27.05h.51l.44-2.5h-.51l-.44,2.5ZM36.25,27.05h.5l.66-3.75h-.5l-.66,3.75ZM44.07,25.25l-.2,1.11c-.09.51.08.72.6.72.2,0,.39-.04.58-.11l.1-.57h-.02c-.1.09-.26.19-.44.19-.24,0-.31-.11-.28-.29l.17-1c.03-.18.14-.29.38-.29.15,0,.29.07.38.19h.02l.1-.57c-.09-.05-.28-.11-.54-.11-.52,0-.76.21-.86.73h0ZM37.67,27.05h.5l.66-3.75h-.5l-.66,3.75ZM32.23,25.25l-.2,1.11c-.09.51.08.72.6.72.2,0,.39-.04.58-.11l.1-.57h-.02c-.1.09-.25.19-.44.19-.24,0-.31-.11-.28-.29l.17-1c.03-.18.14-.29.38-.29.15,0,.29.07.38.19h.02l.1-.57c-.09-.05-.28-.11-.54-.11-.51,0-.76.21-.85.73h0ZM31.15,24.56l-.32.51c-.08.12-.12.22-.12.22h-.01c0-.07-.03-.15-.05-.22l-.15-.51h-.58l.38,1.16-.92,1.34h.54l.46-.71c.05-.07.09-.14.12-.22h.01c0,.08.03.15.05.22l.22.71h.59l-.46-1.37.76-1.12h-.52ZM29.37,23.82l.09-.52h-1.45l-.66,3.75h1.47l.09-.51h-.92l.22-1.23h.85l.09-.52h-.85l.17-.97h.89ZM42.86,24.52c-.23,0-.45.12-.57.32h-.02l.05-.29h-.54l-.44,2.5h.54l.3-1.71c.03-.2.13-.33.34-.33s.26.14.22.33l-.3,1.71h.52l.32-1.83c.07-.39.03-.7-.43-.7h0ZM40.27,24.52h-.09c-.48,0-.75.16-.84.67l-.19,1.1c-.1.56.14.8.69.8.22,0,.44-.04.65-.11l.09-.53h-.02c-.14.1-.38.16-.54.16-.25,0-.39-.08-.34-.35l.05-.26h1l.14-.81c.09-.5-.12-.67-.58-.67h0ZM40.36,25.25l-.06.32h-.52l.06-.32c.03-.19.11-.29.31-.29s.24.1.21.29h0ZM76.81,24.52h-.09c-.48,0-.75.16-.84.67l-.19,1.1c-.1.56.14.8.69.8.22,0,.44-.04.65-.11l.09-.53h-.02c-.14.1-.38.16-.54.16-.25,0-.39-.08-.34-.35l.05-.26h1l.14-.81c.09-.5-.12-.67-.58-.67h0ZM76.9,25.25l-.06.32h-.52l.06-.32c.03-.19.11-.29.31-.29s.24.1.21.29h0ZM74.55,24.78h-.77l.26-1.48h-.56l-.66,3.75h.56l.31-1.76h.77l-.31,1.76h.56l.66-3.75h-.56l-.26,1.48ZM79.06,24.52c-.25,0-.54.04-.78.14l-.09.51h.02c.18-.12.42-.17.63-.17.23,0,.36.05.31.3l-.07.41h-.02c-.08-.17-.23-.24-.43-.24-.37,0-.55.19-.61.55l-.09.52c-.06.36.05.54.42.54.2,0,.38-.07.51-.24h.02l-.04.21h.53l.33-1.88c.08-.48-.21-.65-.64-.65ZM78.94,26.44c-.03.16-.17.23-.31.23-.15,0-.25-.07-.22-.23l.06-.31c.03-.16.15-.23.3-.23s.26.07.23.23l-.06.31ZM84.66,24.52c-.23,0-.45.12-.57.32h-.02l.27-1.54h-.54l-.66,3.75h.54l.3-1.71c.03-.2.13-.33.34-.33s.26.14.22.33l-.3,1.71h.52l.32-1.83c.07-.39.03-.7-.43-.7ZM69.5,25.14l-.05.31c-.06.36.07.53.43.53.32,0,.37,0,.35.14l-.06.32c-.03.18-.23.21-.39.21-.17,0-.37-.05-.48-.14h-.02l-.09.51c.15.05.37.09.56.09.48,0,.83-.05.93-.62l.08-.43c.06-.36-.07-.52-.43-.52-.32,0-.37,0-.35-.14l.03-.2c.03-.17.17-.21.32-.21.16,0,.35.04.46.14h.02l.09-.5c-.12-.05-.33-.09-.51-.09-.5,0-.79.06-.89.62h0ZM80.23,27.06h.5l.66-3.75h-.5l-.66,3.75ZM82.7,23.9h-.53l-.12.66h-.15l-.09.5h.15l-.27,1.5c-.05.29.02.53.4.53.1,0,.23,0,.34-.03l.08-.45h-.11c-.11,0-.18,0-.16-.15l.25-1.4h.29l.09-.5h-.29l.12-.66ZM68,24.52c-.23,0-.45.12-.57.32h-.02l.05-.29h-.54l-.44,2.5h.54l.3-1.71c.03-.2.13-.33.34-.33s.26.14.22.33l-.3,1.71h.52l.32-1.83c.07-.39.03-.7-.43-.7h0ZM59.64,24.52h-.14c-.5,0-.75.22-.84.71l-.2,1.14c-.09.5.09.71.59.71h.14c.49,0,.75-.22.83-.71l.2-1.14c.09-.5-.09-.71-.58-.71h0ZM59.72,25.27l-.19,1.08c-.03.19-.14.26-.32.26s-.27-.07-.24-.26l.19-1.08c.03-.19.14-.26.33-.26.18,0,.26.07.23.26h0ZM69.84,23.3h-.62l-.45,1h.45l.62-1ZM58.08,23.3l-.78,2.28c-.08.24-.15.53-.15.53h-.01s.03-.28.03-.53l.02-2.28h-.45l-.79,2.28c-.09.26-.16.54-.16.54h-.01s.03-.28.04-.54l.03-2.28h-.55v3.75h.52l.79-2.15c.08-.24.14-.48.14-.48h.01s-.01.24-.01.48l.02,2.15h.5l1.34-3.75h-.5ZM63.28,24.52c-.25,0-.46.13-.6.36h-.02c0-.25-.19-.36-.43-.36s-.44.12-.57.33h-.02l.05-.3h-.54l-.44,2.5h.54l.3-1.71c.03-.2.11-.31.33-.31s.26.11.22.31l-.3,1.71h.51l.3-1.7c.03-.19.11-.32.33-.32s.24.13.21.32l-.3,1.7h.51l.33-1.84c.07-.38.04-.69-.41-.69h0ZM52.42,24.52c-.23,0-.45.12-.57.32h-.02l.05-.29h-.54l-.44,2.5h.54l.3-1.71c.03-.2.13-.33.34-.33s.26.14.22.33l-.3,1.71h.52l.32-1.83c.07-.39.03-.7-.43-.7h0ZM65.41,24.52h-.09c-.48,0-.75.16-.84.67l-.19,1.1c-.1.56.14.8.69.8.22,0,.44-.04.65-.11l.09-.53h-.02c-.14.1-.38.16-.54.16-.25,0-.39-.08-.35-.35l.05-.26h1l.14-.81c.09-.5-.12-.67-.58-.67h0ZM65.5,25.25l-.06.32h-.52l.06-.32c.03-.19.11-.29.31-.29s.24.1.21.29h0Z" fill="#796890"></path><path d="M32.15,14.32c-.17-.32-.45-.56-.79-.69v-.07c1.04-.21,1.48-1,1.48-2.01v-1.27c0-1.57-.6-2.5-2.26-2.5h-3.82l.83,1.3v10.95h1.41v-5.97h.72c.69,0,1.04.53,1.23,1.25.21.78.27,1.96.35,2.84.07.78.19,1.48.49,1.89h1.55v-.07c-.3-.32-.55-.7-.6-1.15-.12-1.09-.14-3.66-.6-4.49ZM30.34,12.75h-1.34v-3.66h1.34c.81,0,1.09.42,1.09,1.2v1.27c0,.74-.32,1.2-1.09,1.2h0Z" fill="#5c4a72"></path><path d="M39.15,7.79l-2.63,12.25h1.3l.69-3.24h2.41l.69,3.24h1.37l-2.62-12.25h-1.22ZM38.79,15.49l.92-4.71h.07l.86,4.7h-1.85Z" fill="#5c4a72"></path><path d="M52.02,16.79h-.03c-.13-.44-.29-.87-.48-1.29l-3.47-7.72h-1.16v12.25h1.3v-9.06h.03s.21.74.46,1.29l3.49,7.77h1.16V7.79h-1.3v9Z" fill="#5c4a72"></path><path d="M57.66,9.09h3.93l-.58,1.29-3.88,9.58v.07h5.88v-1.3h-3.93s.44-.93.64-1.41l3.82-9.46v-.07h-5.89v1.3Z" fill="#5c4a72"></path><path d="M66.97,10.08v7.67c0,1.78,1.23,2.4,2.85,2.4.63,0,1.26-.11,1.85-.34v-1.66h-.07c-.19.21-.72.63-1.48.63-.9,0-1.74-.3-1.74-1.34v-7.06c0-1.04.85-1.34,1.74-1.34.76,0,1.29.42,1.48.63h.07v-1.66c-.59-.23-1.22-.34-1.85-.34-1.62,0-2.85.62-2.85,2.4Z" fill="#5c4a72"></path><path d="M78.96,7.68h-.95c-1.69,0-2.5.81-2.5,2.5v7.45c0,1.67.83,2.5,2.5,2.5h.95c1.69,0,2.5-.81,2.5-2.5v-7.45c0-1.69-.81-2.5-2.5-2.5ZM80.06,17.58c0,1.07-.62,1.27-1.57,1.27s-1.57-.19-1.57-1.27v-7.35c0-1.08.62-1.27,1.57-1.27s1.57.23,1.57,1.27v7.35Z" fill="#5c4a72"></path><path d="M88.3,12.79v1.3h1.59v3.54c0,1.06-.4,1.27-1.41,1.27-.94,0-1.41-.26-1.41-1.27v-7.28c0-1.18.83-1.37,1.83-1.37.7,0,1.34.23,1.87.7h.07v-1.66c-.39-.14-1.04-.35-1.94-.35-1.8,0-3.24.41-3.24,2.5v7.45c0,1.76.85,2.5,2.57,2.5h.65c1.74,0,2.41-.79,2.41-2.5v-4.84h-3Z" fill="#5c4a72"></path><path d="M5.99,3.14c-.02.06-.02.05-.04.11.48.31.91.6,1.51,1.02.07-.31.18-.61.33-.89-.72-.08-1.24-.15-1.8-.24Z" fill="#f8b643"></path><path d="M8.9,2.17c-.6-.41-1.03-.71-1.49-1.05l-.09.08c.28.49.53.95.87,1.6.21-.24.45-.45.71-.63Z" fill="#f8b643"></path><path d="M9.62,0l-.12.03c.02.57.03,1.09.02,1.82.29-.12.6-.2.92-.23-.34-.64-.58-1.11-.82-1.62Z" fill="#f8b643"></path><path d="M12.09.03l-.12-.03c-.25.51-.48.98-.83,1.62.32.03.63.11.92.23,0-.73,0-1.25.02-1.82Z" fill="#f8b643"></path><path d="M13.4,2.81c.34-.65.58-1.11.87-1.6l-.09-.08c-.46.34-.88.64-1.48,1.05.26.18.5.39.71.63Z" fill="#f8b643"></path><path d="M15.65,3.25l-.04-.11c-.56.09-1.08.16-1.8.24.15.28.27.58.33.89.6-.42,1.03-.71,1.51-1.02Z" fill="#f8b643"></path><path d="M0,3.58v11.53c2.93-2.68,5.95-5.13,9.06-7.35C6.06,6.16,3.04,4.76,0,3.58Z" fill="#f8b643"></path><path d="M12.53,7.77c-.58.31-1.16.63-1.74.96-3.66,2.07-7.27,4.46-10.8,7.14v8.82c0,.88.27,1.73.77,2.45,6.68-4.93,13.75-8.9,20.82-11.61V3.58c-3.03,1.17-6.05,2.57-9.06,4.19Z" fill="url(#linear-gradient)"></path><path d="M2.36,28.54l6.64,3.83c1.11.64,2.49.64,3.6,0l6.83-3.94c1.34-.77,2.16-2.2,2.16-3.74v-8.54c-6.62,3.06-13.14,7.3-19.23,12.4ZM13.21,22.93c.15-.36.57-.53.93-.38s.53.57.38.93c-.15.36-.57.53-.93.38,0,0,0,0,0,0-.36-.15-.53-.57-.38-.93ZM15.48,28.31c-.2.47-.74.69-1.21.49-.47-.2-.69-.74-.49-1.21.2-.47.74-.69,1.21-.49,0,0,0,0,0,0,.47.2.69.74.49,1.2h0ZM17.87,22.11c-.15.36-.57.53-.93.38-.36-.15-.53-.57-.38-.93s.57-.53.93-.38c0,0,0,0,0,0,.36.15.53.57.38.93h0ZM18.96,24.65c-.11.26-.4.37-.66.27-.26-.11-.37-.4-.27-.66s.4-.37.66-.27h0c.25.11.37.4.27.66h0Z" fill="url(#linear-gradient-2)"></path><path d="M12.22,5.6c.34-.22.68-.43,1.02-.65-.04-1.32-1.12-2.39-2.45-2.39s-2.41,1.06-2.45,2.39c.34.22.68.43,1.02.65.87.57,1.99.57,2.86,0Z" fill="#f8b643"></path></g><g id="TM_colour_"><path d="M95.08,7.79h-.23l-.02.02-.44.66-.45-.66-.02-.02h-.28v1.46h.29v-.93l.41.6.04.07.04-.07.41-.61v.94h.29v-1.46h-.05ZM92.25,7.79h-.05v.28h.46v1.18h.29v-1.18h.46v-.28h-1.16ZM92.67,8.01,92.89,8.04h0s0,0,0,0Z" fill="#5c4a72"></path></g></g></svg> 